<?xml version="1.0" encoding="UTF-8"?>
<svg xmlns="http://www.w3.org/2000/svg" xmlns:xlink="http://www.w3.org/1999/xlink" viewBox="0 0 64 64" width="64px" height="64px">
<g id="surface5705918">
<path style=" stroke:none;fill-rule:nonzero;fill:rgb(100%,100%,100%);fill-opacity:1;" d="M 4 1 L 60 1 L 60 32 L 4 32 Z M 4 1 "/>
<path style=" stroke:none;fill-rule:nonzero;fill:rgb(90.588236%,29.803923%,23.529412%);fill-opacity:1;" d="M 46.917969 8.113281 C 44.90625 8.554688 43.371094 10.1875 43.058594 12.222656 C 42.742188 14.261719 43.714844 16.28125 45.5 17.304688 L 45.5 19 L 50.5 19 L 50.5 17.304688 C 52.636719 16.074219 53.554688 13.46875 52.660156 11.171875 C 51.765625 8.871094 49.324219 7.574219 46.917969 8.113281 Z M 46.917969 8.113281 "/>
<path style=" stroke:none;fill-rule:nonzero;fill:rgb(90.588236%,29.803923%,23.529412%);fill-opacity:1;" d="M 45.5 22 L 45.5 22.667969 C 45.5 23.402344 46.394531 24 47.5 24 L 48.5 24 C 49.605469 24 50.5 23.402344 50.5 22.667969 L 50.5 22 Z M 45.5 22 "/>
<path style=" stroke:none;fill-rule:nonzero;fill:rgb(90.588236%,29.803923%,23.529412%);fill-opacity:1;" d="M 22.070312 19 C 22.070312 18.632812 22.035156 18.265625 21.96875 17.90625 L 24 16.730469 L 22 13.269531 L 20.542969 14.109375 C 20.222656 14.300781 19.816406 14.292969 19.503906 14.085938 C 19.222656 13.886719 18.925781 13.714844 18.613281 13.570312 C 18.277344 13.402344 18.066406 13.058594 18.070312 12.683594 L 18.070312 11 L 14.070312 11 L 14.070312 12.683594 C 14.078125 13.058594 13.867188 13.402344 13.53125 13.570312 C 13.21875 13.714844 12.921875 13.886719 12.640625 14.085938 C 12.328125 14.292969 11.921875 14.300781 11.601562 14.109375 L 10.144531 13.269531 L 8.144531 16.730469 L 10.175781 17.90625 C 10.035156 18.628906 10.035156 19.371094 10.175781 20.09375 L 8.144531 21.269531 L 10.144531 24.730469 L 11.601562 23.890625 C 11.921875 23.699219 12.328125 23.707031 12.640625 23.914062 C 12.921875 24.113281 13.21875 24.285156 13.53125 24.429688 C 13.867188 24.597656 14.078125 24.941406 14.070312 25.316406 L 14.070312 27 L 18.070312 27 L 18.070312 25.316406 C 18.066406 24.941406 18.277344 24.597656 18.613281 24.429688 C 18.925781 24.285156 19.222656 24.113281 19.503906 23.914062 C 19.816406 23.707031 20.222656 23.699219 20.542969 23.890625 L 22 24.730469 L 24 21.269531 L 21.96875 20.09375 C 22.035156 19.734375 22.070312 19.367188 22.070312 19 Z M 16.160156 21.960938 C 14.945312 21.976562 13.839844 21.257812 13.359375 20.140625 C 12.878906 19.023438 13.121094 17.726562 13.96875 16.855469 C 14.816406 15.984375 16.109375 15.710938 17.238281 16.160156 C 18.367188 16.613281 19.113281 17.699219 19.128906 18.914062 C 19.148438 20.574219 17.820312 21.9375 16.160156 21.960938 Z M 16.160156 21.960938 "/>
<path style=" stroke:none;fill-rule:nonzero;fill:rgb(90.588236%,29.803923%,23.529412%);fill-opacity:1;" d="M 50 45 L 48 45 L 49 49 L 44 45 L 42 45 C 41.449219 45 41 44.550781 41 44 L 41 38 C 41 37.449219 41.449219 37 42 37 L 50 37 C 50.550781 37 51 37.449219 51 38 L 51 44 C 51 44.550781 50.550781 45 50 45 Z M 50 45 "/>
<path style=" stroke:none;fill-rule:nonzero;fill:rgb(90.588236%,29.803923%,23.529412%);fill-opacity:1;" d="M 26 45 L 28 45 L 27 49 L 32 45 L 34 45 C 34.550781 45 35 44.550781 35 44 L 35 38 C 35 37.449219 34.550781 37 34 37 L 26 37 C 25.449219 37 25 37.449219 25 38 L 25 44 C 25 44.550781 25.449219 45 26 45 Z M 26 45 "/>
<path style=" stroke:none;fill-rule:nonzero;fill:rgb(90.588236%,29.803923%,23.529412%);fill-opacity:1;" d="M 47.5 4 L 48.5 4 L 48.5 6 L 47.5 6 Z M 47.5 4 "/>
<path style=" stroke:none;fill-rule:nonzero;fill:rgb(90.588236%,29.803923%,23.529412%);fill-opacity:1;" d="M 47 26 L 49 26 L 49 28 L 47 28 Z M 47 26 "/>
<path style=" stroke:none;fill-rule:nonzero;fill:rgb(90.588236%,29.803923%,23.529412%);fill-opacity:1;" d="M 43 26 L 45 26 L 45 28 L 43 28 Z M 43 26 "/>
<path style=" stroke:none;fill-rule:nonzero;fill:rgb(90.588236%,29.803923%,23.529412%);fill-opacity:1;" d="M 39 26 L 41 26 L 41 28 L 39 28 Z M 39 26 "/>
<path style=" stroke:none;fill-rule:nonzero;fill:rgb(90.588236%,29.803923%,23.529412%);fill-opacity:1;" d="M 35 26 L 37 26 L 37 28 L 35 28 Z M 35 26 "/>
<path style=" stroke:none;fill-rule:nonzero;fill:rgb(90.588236%,29.803923%,23.529412%);fill-opacity:1;" d="M 35 22 L 37 22 L 37 24 L 35 24 Z M 35 22 "/>
<path style=" stroke:none;fill-rule:nonzero;fill:rgb(90.588236%,29.803923%,23.529412%);fill-opacity:1;" d="M 35 18 L 37 18 L 37 20 L 35 20 Z M 35 18 "/>
<path style=" stroke:none;fill-rule:nonzero;fill:rgb(90.588236%,29.803923%,23.529412%);fill-opacity:1;" d="M 31 18 L 33 18 L 33 20 L 31 20 Z M 31 18 "/>
<path style=" stroke:none;fill-rule:nonzero;fill:rgb(90.588236%,29.803923%,23.529412%);fill-opacity:1;" d="M 27 18 L 29 18 L 29 20 L 27 20 Z M 27 18 "/>
<path style=" stroke:none;fill-rule:nonzero;fill:rgb(90.588236%,29.803923%,23.529412%);fill-opacity:1;" d="M 5 53 L 9 53 C 11.210938 53 13 54.789062 13 57 L 13 63 L 1 63 L 1 57 C 1 54.789062 2.789062 53 5 53 Z M 5 53 "/>
<path style=" stroke:none;fill-rule:nonzero;fill:rgb(90.588236%,29.803923%,23.529412%);fill-opacity:1;" d="M 55 53 L 59 53 C 61.210938 53 63 54.789062 63 57 L 63 63 L 51 63 L 51 57 C 51 54.789062 52.789062 53 55 53 Z M 55 53 "/>
<path style=" stroke:none;fill-rule:nonzero;fill:rgb(90.588236%,29.803923%,23.529412%);fill-opacity:1;" d="M 10.5 49.5 C 10.5 51.433594 8.933594 53 7 53 C 5.066406 53 3.5 51.433594 3.5 49.5 C 3.5 47.566406 5.066406 46 7 46 C 8.933594 46 10.5 47.566406 10.5 49.5 Z M 10.5 49.5 "/>
<path style=" stroke:none;fill-rule:nonzero;fill:rgb(90.588236%,29.803923%,23.529412%);fill-opacity:1;" d="M 17 53 L 21 53 C 23.210938 53 25 54.789062 25 57 L 25 63 L 13 63 L 13 57 C 13 54.789062 14.789062 53 17 53 Z M 17 53 "/>
<path style=" stroke:none;fill-rule:nonzero;fill:rgb(90.588236%,29.803923%,23.529412%);fill-opacity:1;" d="M 22.5 49.5 C 22.5 51.433594 20.933594 53 19 53 C 17.066406 53 15.5 51.433594 15.5 49.5 C 15.5 47.566406 17.066406 46 19 46 C 20.933594 46 22.5 47.566406 22.5 49.5 Z M 22.5 49.5 "/>
<path style=" stroke:none;fill-rule:nonzero;fill:rgb(90.588236%,29.803923%,23.529412%);fill-opacity:1;" d="M 60.5 49.5 C 60.5 51.433594 58.933594 53 57 53 C 55.066406 53 53.5 51.433594 53.5 49.5 C 53.5 47.566406 55.066406 46 57 46 C 58.933594 46 60.5 47.566406 60.5 49.5 Z M 60.5 49.5 "/>
<path style=" stroke:none;fill-rule:nonzero;fill:rgb(90.588236%,29.803923%,23.529412%);fill-opacity:1;" d="M 55 12.5 L 57 12.5 L 57 13.5 L 55 13.5 Z M 55 12.5 "/>
<path style=" stroke:none;fill-rule:nonzero;fill:rgb(90.588236%,29.803923%,23.529412%);fill-opacity:1;" d="M 39 12.5 L 41 12.5 L 41 13.5 L 39 13.5 Z M 39 12.5 "/>
<path style=" stroke:none;fill-rule:nonzero;fill:rgb(90.588236%,29.803923%,23.529412%);fill-opacity:1;" d="M 41.28125 6.988281 L 41.988281 6.28125 L 43.402344 7.695312 L 42.695312 8.402344 Z M 41.28125 6.988281 "/>
<path style=" stroke:none;fill-rule:nonzero;fill:rgb(90.588236%,29.803923%,23.529412%);fill-opacity:1;" d="M 52.597656 7.695312 L 54.011719 6.28125 L 54.71875 6.988281 L 53.304688 8.402344 Z M 52.597656 7.695312 "/>
<path style=" stroke:none;fill-rule:nonzero;fill:rgb(90.588236%,29.803923%,23.529412%);fill-opacity:1;" d="M 45.5 19 L 50.5 19 L 50.5 21 L 45.5 21 Z M 45.5 19 "/>
</g>
</svg>
