<?xml version="1.0" encoding="UTF-8"?>
<svg xmlns="http://www.w3.org/2000/svg" xmlns:xlink="http://www.w3.org/1999/xlink" viewBox="0 0 64 64" width="64px" height="64px">
<defs>
<linearGradient id="linear0" gradientUnits="userSpaceOnUse" x1="86" y1="48.318562" x2="86" y2="54.475632" >
<stop offset="0" style="stop-color:rgb(100%,91.37255%,90.588236%);stop-opacity:1;"/>
<stop offset="1" style="stop-color:rgb(86.666667%,43.137255%,58.823532%);stop-opacity:1;"/>
</linearGradient>
<linearGradient id="linear1" gradientUnits="userSpaceOnUse" x1="86" y1="14.46681" x2="86" y2="157.710556" gradientTransform="matrix(0.372093,0,0,0.372093,0,0)">
<stop offset="0" style="stop-color:rgb(100%,50.588238%,46.666667%);stop-opacity:1;"/>
<stop offset="1" style="stop-color:rgb(69.411767%,16.470589%,35.686275%);stop-opacity:1;"/>
</linearGradient>
<linearGradient id="linear2" gradientUnits="userSpaceOnUse" x1="91.375" y1="14.46681" x2="91.375" y2="157.710556" gradientTransform="matrix(0.372093,0,0,0.372093,0,0)">
<stop offset="0" style="stop-color:rgb(100%,50.588238%,46.666667%);stop-opacity:1;"/>
<stop offset="1" style="stop-color:rgb(69.411767%,16.470589%,35.686275%);stop-opacity:1;"/>
</linearGradient>
</defs>
<g id="surface5683608">
<path style=" stroke:none;fill-rule:nonzero;fill:url(#linear0);" d="M 15 18 L 49 18 L 49 20 L 15 20 Z M 15 18 "/>
<path style=" stroke:none;fill-rule:nonzero;fill:url(#linear1);" d="M 48.898438 45.699219 C 49.398438 44.898438 49.800781 44 49.898438 43 L 50 43 C 51.699219 43 53 41.699219 53 40 C 53 38.300781 51.699219 37 50 37 L 49.898438 37 C 49.601562 35.199219 48.699219 33.601562 47.300781 32.5 L 48.5 24 L 49.898438 24 C 51.601562 24 53 22.601562 53 20.898438 L 53 17 C 53 15.300781 51.699219 14 50 14 L 50 11 C 50 9.5 49.199219 8.199219 47.898438 7.5 C 47.699219 6.699219 46.898438 6 46 6 C 44.898438 6 44 6.898438 44 8 C 44 9.101562 44.898438 10 46 10 C 46.5 10 47 9.800781 47.300781 9.5 C 47.699219 9.898438 48 10.398438 48 11 L 48 14 L 16 14 L 16 11 C 16 10.398438 16.300781 9.898438 16.699219 9.5 C 17 9.800781 17.5 10 18 10 C 19.101562 10 20 9.101562 20 8 C 20 6.898438 19.101562 6 18 6 C 17.101562 6 16.300781 6.699219 16.101562 7.5 C 14.800781 8.199219 14 9.5 14 11 L 14 14 C 12.300781 14 11 15.398438 11 17 L 11 20.898438 C 11 22.601562 12.398438 24 14.101562 24 L 15.5 24 L 16.699219 32.5 C 15.300781 33.601562 14.398438 35.199219 14.101562 37 L 14 37 C 12.300781 37 11 38.300781 11 40 C 11 41.699219 12.300781 43 14 43 L 14.101562 43 C 14.199219 44 14.601562 44.898438 15.101562 45.699219 C 11.898438 47.699219 10 51.199219 10 55 L 10 58 L 54 58 L 54 55 C 54 51.199219 52.101562 47.800781 48.898438 45.699219 Z M 51 40 C 51 40.601562 50.601562 41 50 41 L 50 39 C 50.601562 39 51 39.398438 51 40 Z M 48 38 L 48 42 C 48 44.800781 45.800781 47 43 47 C 42.699219 47 42.5 47 42.199219 46.898438 C 41.398438 45.898438 40.398438 45 39.300781 44.199219 C 39.699219 43.199219 40 42.101562 40 40.898438 C 41.699219 40.898438 43 39.601562 43 37.898438 C 43 36.199219 41.699219 34.898438 40 34.898438 C 40 34.601562 40 34.300781 39.898438 34 C 40.800781 33.300781 41.800781 32.898438 43 32.898438 C 45.800781 33 48 35.199219 48 38 Z M 40 37 C 40.601562 37 41 37.398438 41 38 C 41 38.601562 40.601562 39 40 39 Z M 38 41 C 38 44.300781 35.300781 47 32 47 C 28.699219 47 26 44.300781 26 41 L 26 35 C 26 31.699219 28.699219 29 32 29 C 35.300781 29 38 31.699219 38 35 Z M 24 39 C 23.398438 39 23 38.601562 23 38 C 23 37.398438 23.398438 37 24 37 Z M 32 49 C 34.5 49 36.800781 47.800781 38.300781 46 C 38.898438 46.398438 39.398438 46.800781 39.800781 47.300781 C 37.898438 49.601562 35 51 32 51 C 29 51 26.101562 49.601562 24.199219 47.199219 C 24.699219 46.699219 25.199219 46.300781 25.699219 45.898438 C 27.199219 47.800781 29.5 49 32 49 Z M 13 20.898438 L 13 17 C 13 16.398438 13.5 15.898438 14.101562 15.898438 L 49.898438 15.898438 C 50.5 15.898438 51 16.398438 51 17 L 51 20.898438 C 51 21.5 50.5 22 49.898438 22 L 14.101562 22 C 13.5 22 13 21.5 13 20.898438 Z M 17.398438 24 L 46.5 24 L 45.398438 31.5 C 44.699219 31.199219 43.898438 31 43 31 C 41.699219 31 40.5 31.398438 39.398438 32 C 38.199219 29.101562 35.300781 27 32 27 C 28.699219 27 25.800781 29.101562 24.601562 32 C 23.5 31.398438 22.300781 31 21 31 C 20.101562 31 19.300781 31.199219 18.5 31.5 Z M 16 38 C 16 35.199219 18.199219 33 21 33 C 22.101562 33 23.199219 33.398438 24.101562 34.101562 C 24.101562 34.398438 24 34.699219 24 35 C 22.300781 35 21 36.300781 21 38 C 21 39.699219 22.300781 41 24 41 C 24 42.199219 24.300781 43.300781 24.699219 44.300781 C 23.601562 45.101562 22.601562 45.898438 21.800781 47 C 21.601562 47 21.300781 47 21 47 C 18.199219 47 16 44.800781 16 42 Z M 13 40 C 13 39.398438 13.398438 39 14 39 L 14 41 C 13.398438 41 13 40.601562 13 40 Z M 12 56 L 12 55 C 12 51.800781 13.699219 48.898438 16.398438 47.300781 C 17.5 48.300781 18.898438 48.898438 20.5 49 C 19.5 50.800781 19 52.898438 19 55 L 19 56 Z M 43 56 L 21 56 L 21 55 C 21 52.699219 21.699219 50.601562 22.898438 48.800781 C 25.199219 51.398438 28.5 53 32 53 C 35.5 53 38.800781 51.5 41.101562 48.800781 C 42.300781 50.601562 43 52.699219 43 55 Z M 52 56 L 45 56 L 45 55 C 45 52.898438 44.5 50.800781 43.5 49 C 45.101562 48.898438 46.5 48.300781 47.601562 47.300781 C 50.300781 48.898438 52 51.800781 52 55 Z M 52 56 "/>
<path style=" stroke:none;fill-rule:nonzero;fill:url(#linear2);" d="M 32 31 L 32 33 C 33.101562 33 34 33.898438 34 35 L 36 35 C 36 32.800781 34.199219 31 32 31 Z M 32 31 "/>
</g>
</svg>
