<svg xmlns="http://www.w3.org/2000/svg" width="100" height="100" viewBox="0 0 100 100"><path d="M52.071,97.992c-10.029,0-17.389-7.16-18.763-8.596 c-2.208-2.21-4.105-4.696-5.643-7.396H26c-2.259,0-4.423-0.962-5.937-2.638C8.125,66.147,9.128,49.225,11.299,38.992 C9.39,36.135,7,31.382,7,25.5c0-7.856,5.596-16.041,16.291-16.483c0.292-0.011,0.57-0.016,0.85-0.016 c3.465,0,7.229,0.812,11.221,2.416C40.4,8.52,46.23,7.001,52.395,7.001c19.167,0,33.622,14.558,33.622,33.861 c0,1.861-0.093,3.512-0.299,5.1c0.973,0.564,1.854,1.295,2.603,2.17c4.546,5.315,2.838,15.133-1.726,20.359 c-1.565,1.791-3.529,3.045-5.714,3.681c-1.018,4.825-3.505,11.326-9.47,17.3C70.01,90.894,62.491,97.992,52.071,97.992z M23.815,22.007C20.664,22.137,20,23.979,20,25.5c0,0.189,0.006,0.376,0.018,0.562C20.342,26.021,20.669,26,21,26h1.235 c0.625-1.387,1.341-2.723,2.142-3.998C24.308,22.001,24.239,22,24.17,22C24.051,22,23.932,22.002,23.815,22.007z" opacity=".35"/><path fill="#f2f2f2" d="M50.071,95.992c-10.029,0-17.389-7.16-18.763-8.596c-2.208-2.21-4.105-4.696-5.643-7.396H24 c-2.259,0-4.423-0.962-5.937-2.638C6.125,64.147,7.128,47.225,9.299,36.992C7.39,34.135,5,29.382,5,23.5 c0-7.856,5.596-16.041,16.291-16.483c0.292-0.011,0.57-0.016,0.85-0.016c3.465,0,7.229,0.812,11.221,2.416 C38.4,6.52,44.23,5.001,50.395,5.001c19.167,0,33.622,14.558,33.622,33.861c0,1.861-0.093,3.512-0.299,5.1 c0.973,0.564,1.854,1.295,2.603,2.17c4.546,5.315,2.838,15.133-1.726,20.359c-1.565,1.791-3.529,3.045-5.714,3.681 c-1.018,4.825-3.505,11.326-9.47,17.3C68.01,88.894,60.491,95.992,50.071,95.992z"/><path fill="#ffc7a3" d="M64.78,81.075c5.121-4.146,6.022-9.918,8.431-17.262c2.017,1.888,5.296,1.379,7.898-1.599 c2.83-3.239,3.582-7.934,1.681-10.486c-1.519-2.039-4.104-2.282-6.593-0.569c0.692-4.458,0.283-8.708,0.283-12.298 c0-16.628-11.279-26.675-26.085-26.675c-12.71,0-23.738,7.357-26.346,19.972c-0.43,2.081,0.262,4.35,0.262,6.704 c0,3.655-0.289,7.994,0.578,12.54c-0.578-2.16-4.731-1.77-6.318,0.36c-1.901,2.552-1.148,7.247,1.681,10.486 c2.83,3.239,5.89,3.569,7.791,1.017c0.008-0.01,0.013-0.022,0.021-0.032c0.707,3.237,0.615,6.071,1.352,8.553 c1.075,3.624,3.168,6.527,5.897,9.082l10.177,7.89h9.61L64.78,81.075z"/><circle cx="38.001" cy="53.989" r="3" fill="#40396e"/><circle cx="62.013" cy="53.994" r="3" fill="#40396e"/><path fill="#40396e" d="M23.395,71.309c-11.531-13.587-6.552-32.689-4.87-37.932C18.79,32.551,19.559,32,20.426,32h3.299 L25,29h-6c-1.238,0-2.349,0.761-2.797,1.915l0,0c-0.409,1.055-9.845,26.033,5.571,43.096l0,0C22.343,74.641,23.152,75,24,75l6,0 l-0.621-3l-4.463,0C24.334,72,23.771,71.753,23.395,71.309z"/><path fill="#707cc0" d="M56,32H19c0,0-9.354,24.112,5,40l5.284,0l0.78,0.113c0,0-2.064-9.112,12.415-11.877 c1.984-0.379,3.521-1.93,3.521-3.95V49c0-2.209,1.791-4,4-4h3.989H56c2.209,0,4-1.791,4-4v-5C60,33.791,58.209,32,56,32z M40.283,57.245l-10,1.429C29.078,58.846,28,57.911,28,56.694V50c0-1.105,0.895-2,2-2h10c1.105,0,2,0.895,2,2v5.265 C42,56.261,41.268,57.105,40.283,57.245z"/><path fill="#9aa2e6" d="M37,39h-7c-1.105,0-2-0.895-2-2v-7c0-1.105,0.895-2,2-2h7c1.105,0,2,0.895,2,2v7 C39,38.105,38.105,39,37,39z"/><circle cx="33.5" cy="33.5" r="3.5" fill="#d9eeff"/><circle cx="19.5" cy="53.5" r="2.5" fill="#dd4f2c"/><path fill="none" stroke="#40396e" stroke-linecap="round" stroke-linejoin="round" stroke-miterlimit="10" stroke-width="3" d="M16.354,35.5c0,0-4.854-5-4.854-12c0-4.773,3.189-9.705,10.059-9.988c3.205-0.132,7.212,0.748,12.07,3.129"/><path fill="#40396e" d="M82.519,49.381c-1.041-1.218-2.76-2.022-4.686-1.721c0.931-3.202,1.184-5.796,1.184-8.798 c0-16.723-12.241-28.861-28.622-28.861c-14.04,0-24.773,8.921-27.556,21.999h1.553c0.874,0,1.655-0.566,1.905-1.403 c3.14-10.555,12.319-17.598,24.1-17.598c14.643,0,25.622,10.876,25.622,25.861c0,3.587-0.49,6.482-1.636,11.004 c-0.116,0.61,0.156,1.229,0.684,1.556c0.527,0.327,1.202,0.294,1.697-0.081c2.011-1.526,3.248-0.276,3.477-0.01 c1.425,1.666,0.801,7.066-1.672,9.897c-1.993,2.282-4.602,1.198-4.882,1.072c-0.36-0.17-0.774-0.189-1.147-0.053 c-0.616,0.223-1.016,0.842-0.989,1.496c0.042,1.009,0.183,10.081-7.803,18.078c-0.058,0.059-5.921,6.173-13.675,6.173 c-7.253,0-12.958-6.101-13.03-6.175c-2.871-2.875-4.682-5.884-5.831-8.611C30.901,72.47,30.178,72,29.38,72l-1.806,0 c1.163,3.612,3.32,7.906,7.329,11.92c0.266,0.275,6.623,7.072,15.169,7.072c9.031,0,15.532-6.784,15.801-7.054 c6.926-6.935,8.355-14.709,8.625-18.347c1.899,0.237,4.374-0.15,6.331-2.389C83.901,59.683,85.285,52.615,82.519,49.381z"/></svg>