<svg xmlns="http://www.w3.org/2000/svg" xmlns:xlink="http://www.w3.org/1999/xlink" width="64" height="64" viewBox="0 0 64 64"><g id="surface5500585"><path style="stroke:none;fill-rule:nonzero;fill:#e74c3c;fill-opacity:1" d="M 64 32 C 64 34.761719 61.761719 37 59 37 C 56.238281 37 54 34.761719 54 32 C 54 29.238281 56.238281 27 59 27 C 61.761719 27 64 29.238281 64 32 Z M 64 32"/><path style="stroke:none;fill-rule:nonzero;fill:#e74c3c;fill-opacity:1" d="M 10 32 C 10 34.761719 7.761719 37 5 37 C 2.238281 37 0 34.761719 0 32 C 0 29.238281 2.238281 27 5 27 C 7.761719 27 10 29.238281 10 32 Z M 10 32"/><path style="stroke:none;fill-rule:nonzero;fill:#fff;fill-opacity:1" d="M 48.964844 15.035156 L 44.710938 19.289062 C 46.585938 21.164062 48.050781 23.453125 48.953125 26 L 43 26 C 42.445312 26 42 26.445312 42 27 L 42 37 C 42 37.554688 42.445312 38 43 38 L 48.953125 38 C 48.050781 40.546875 46.585938 42.835938 44.710938 44.710938 L 48.964844 48.964844 C 53.308594 44.617188 56 38.617188 56 32 C 56 25.382812 53.308594 19.382812 48.964844 15.035156 Z M 48.964844 15.035156"/><path style="stroke:none;fill-rule:nonzero;fill:#e74c3c;fill-opacity:1" d="M 38 48.953125 L 38 43 C 38 42.445312 37.554688 42 37 42 L 27 42 C 26.445312 42 26 42.445312 26 43 L 26 48.953125 C 23.453125 48.050781 21.164062 46.585938 19.289062 44.710938 L 15.035156 48.964844 C 19.382812 53.308594 25.382812 56 32 56 C 38.617188 56 44.617188 53.308594 48.964844 48.964844 L 44.710938 44.710938 C 42.835938 46.585938 40.546875 48.050781 38 48.953125 Z M 38 48.953125"/><path style="stroke:none;fill-rule:nonzero;fill:#fff;fill-opacity:1" d="M 15.046875 38 L 21 38 C 21.554688 38 22 37.554688 22 37 L 22 27 C 22 26.445312 21.554688 26 21 26 L 15.046875 26 C 15.949219 23.453125 17.414062 21.164062 19.289062 19.289062 L 15.035156 15.035156 C 10.691406 19.382812 8 25.382812 8 32 C 8 38.617188 10.691406 44.617188 15.035156 48.964844 L 19.289062 44.710938 C 17.414062 42.835938 15.949219 40.546875 15.046875 38 Z M 15.046875 38"/><path style="stroke:none;fill-rule:nonzero;fill:#e74c3c;fill-opacity:1" d="M 26 15.046875 L 26 21 C 26 21.554688 26.445312 22 27 22 L 37 22 C 37.554688 22 38 21.554688 38 21 L 38 15.046875 C 40.546875 15.949219 42.835938 17.414062 44.710938 19.289062 L 48.964844 15.035156 C 44.617188 10.691406 38.617188 8 32 8 C 25.382812 8 19.382812 10.691406 15.035156 15.035156 L 19.289062 19.289062 C 21.164062 17.414062 23.453125 15.949219 26 15.046875 Z M 26 15.046875"/><path style="stroke:none;fill-rule:nonzero;fill:#e74c3c;fill-opacity:1" d="M 37 5 C 37 7.761719 34.761719 10 32 10 C 29.238281 10 27 7.761719 27 5 C 27 2.238281 29.238281 0 32 0 C 34.761719 0 37 2.238281 37 5 Z M 37 5"/><path style="stroke:none;fill-rule:nonzero;fill:#e74c3c;fill-opacity:1" d="M 37 59 C 37 61.761719 34.761719 64 32 64 C 29.238281 64 27 61.761719 27 59 C 27 56.238281 29.238281 54 32 54 C 34.761719 54 37 56.238281 37 59 Z M 37 59"/><path style="stroke:none;fill-rule:nonzero;fill:#e74c3c;fill-opacity:1" d="M 48 32 C 48 40.835938 40.835938 48 32 48 C 23.164062 48 16 40.835938 16 32 C 16 23.164062 23.164062 16 32 16 C 40.835938 16 48 23.164062 48 32 Z M 48 32"/><path style="stroke:none;fill-rule:nonzero;fill:#fff;fill-opacity:1" d="M 42.261719 19.738281 C 44.589844 22.519531 46 26.097656 46 30 C 46 30.335938 45.984375 30.667969 45.964844 31 L 39.984375 31 C 39.839844 24.792969 38.359375 19.527344 36.160156 16.566406 C 34.828125 16.210938 33.441406 16 32 16 C 34.734375 16 37.765625 22.113281 37.980469 31 L 26.019531 31 C 26.234375 22.113281 29.265625 16 32 16 C 30.558594 16 29.171875 16.210938 27.84375 16.566406 C 25.644531 19.527344 24.160156 24.792969 24.015625 31 L 16.050781 31 C 16.03125 31.332031 16 31.660156 16 32 C 16 32.339844 16.03125 32.667969 16.050781 33 L 24.023438 33 C 24.136719 38.160156 25.121094 42.601562 26.722656 45.648438 C 24.105469 45.097656 21.71875 43.917969 19.738281 42.261719 C 22.675781 45.765625 27.082031 48 32 48 C 40.820312 48 48 40.820312 48 32 C 48 27.082031 45.765625 22.675781 42.261719 19.738281 Z M 30 46 C 29.726562 46 29.464844 45.976562 29.195312 45.964844 C 27.507812 43.46875 26.171875 38.824219 26.027344 33 L 37.972656 33 C 37.847656 38.1875 36.769531 42.433594 35.34375 45.0625 C 33.667969 45.65625 31.875 46 30 46 Z M 38.085938 43.78125 C 39.191406 40.882812 39.882812 37.148438 39.980469 33 L 45.710938 33 C 44.832031 37.589844 41.984375 41.484375 38.085938 43.78125 Z M 38.085938 43.78125"/></g></svg>