<?xml version="1.0" encoding="UTF-8"?>
<svg xmlns="http://www.w3.org/2000/svg" xmlns:xlink="http://www.w3.org/1999/xlink" viewBox="0 0 64 64" width="64px" height="64px">
<g id="surface5482181">
<path style=" stroke:none;fill-rule:nonzero;fill:rgb(90.588236%,29.803923%,23.529412%);fill-opacity:1;" d="M 41 8 L 5 8 C 2.800781 8 1 9.800781 1 12 L 1 37 C 1 39.199219 2.800781 41 5 41 L 7 41 L 7 46 L 14 41 L 41 41 C 43.199219 41 45 39.199219 45 37 L 45 12 C 45 9.800781 43.199219 8 41 8 Z M 41 8 "/>
<path style=" stroke:none;fill-rule:nonzero;fill:rgb(100%,100%,100%);fill-opacity:1;" d="M 23 18 L 59 18 C 61.199219 18 63 19.800781 63 22 L 63 47 C 63 49.199219 61.199219 51 59 51 L 57 51 L 57 56 L 50 51 L 23 51 C 20.800781 51 19 49.199219 19 47 L 19 22 C 19 19.800781 20.800781 18 23 18 Z M 23 18 "/>
<path style=" stroke:none;fill-rule:nonzero;fill:rgb(90.588236%,29.803923%,23.529412%);fill-opacity:1;" d="M 59 17 L 46 17 L 46 12 C 46 9.242188 43.757812 7 41 7 L 5 7 C 2.242188 7 0 9.242188 0 12 L 0 37 C 0 39.757812 2.242188 42 5 42 L 6 42 L 6 46 C 6 46.375 6.210938 46.71875 6.542969 46.890625 C 6.6875 46.964844 6.84375 47 7 47 C 7.203125 47 7.40625 46.9375 7.582031 46.8125 L 14.320312 42 L 18 42 L 18 47 C 18 49.757812 20.242188 52 23 52 L 49.679688 52 L 56.417969 56.8125 C 56.59375 56.9375 56.796875 57 57 57 C 57.15625 57 57.3125 56.964844 57.457031 56.890625 C 57.789062 56.71875 58 56.375 58 56 L 58 52 L 59 52 C 61.757812 52 64 49.757812 64 47 L 64 22 C 64 19.242188 61.757812 17 59 17 Z M 14 40 C 13.792969 40 13.589844 40.066406 13.417969 40.1875 L 8 44.058594 L 8 41 C 8 40.449219 7.554688 40 7 40 L 5 40 C 3.347656 40 2 38.652344 2 37 L 2 12 C 2 10.347656 3.347656 9 5 9 L 41 9 C 42.652344 9 44 10.347656 44 12 L 44 17 L 23 17 C 20.242188 17 18 19.242188 18 22 L 18 40 Z M 62 47 C 62 48.652344 60.652344 50 59 50 L 57 50 C 56.445312 50 56 50.449219 56 51 L 56 54.058594 L 50.582031 50.1875 C 50.410156 50.066406 50.207031 50 50 50 L 23 50 C 21.347656 50 20 48.652344 20 47 L 20 22 C 20 20.347656 21.347656 19 23 19 L 59 19 C 60.652344 19 62 20.347656 62 22 Z M 62 47 "/>
<path style=" stroke:none;fill-rule:nonzero;fill:rgb(90.588236%,29.803923%,23.529412%);fill-opacity:1;" d="M 55 28 L 27 28 C 26.445312 28 26 28.449219 26 29 C 26 29.550781 26.445312 30 27 30 L 55 30 C 55.554688 30 56 29.550781 56 29 C 56 28.449219 55.554688 28 55 28 Z M 55 28 "/>
<path style=" stroke:none;fill-rule:nonzero;fill:rgb(90.588236%,29.803923%,23.529412%);fill-opacity:1;" d="M 55 34 L 27 34 C 26.445312 34 26 34.449219 26 35 C 26 35.550781 26.445312 36 27 36 L 55 36 C 55.554688 36 56 35.550781 56 35 C 56 34.449219 55.554688 34 55 34 Z M 55 34 "/>
<path style=" stroke:none;fill-rule:nonzero;fill:rgb(90.588236%,29.803923%,23.529412%);fill-opacity:1;" d="M 55 40 L 27 40 C 26.445312 40 26 40.449219 26 41 C 26 41.550781 26.445312 42 27 42 L 55 42 C 55.554688 42 56 41.550781 56 41 C 56 40.449219 55.554688 40 55 40 Z M 55 40 "/>
</g>
</svg>
