<?xml version="1.0" encoding="UTF-8"?>
<svg xmlns="http://www.w3.org/2000/svg" xmlns:xlink="http://www.w3.org/1999/xlink" viewBox="0 0 64 64" width="64px" height="64px">
<defs>
<linearGradient id="linear0" gradientUnits="userSpaceOnUse" x1="86" y1="7.29354" x2="86" y2="159.518585" gradientTransform="matrix(0.372093,0,0,0.372093,0,0)">
<stop offset="0" style="stop-color:rgb(100%,50.588238%,46.666667%);stop-opacity:1;"/>
<stop offset="1" style="stop-color:rgb(69.411767%,16.470589%,35.686275%);stop-opacity:1;"/>
</linearGradient>
<linearGradient id="linear1" gradientUnits="userSpaceOnUse" x1="86" y1="7.29354" x2="86" y2="159.518585" gradientTransform="matrix(0.372093,0,0,0.372093,0,0)">
<stop offset="0" style="stop-color:rgb(100%,50.588238%,46.666667%);stop-opacity:1;"/>
<stop offset="1" style="stop-color:rgb(69.411767%,16.470589%,35.686275%);stop-opacity:1;"/>
</linearGradient>
<linearGradient id="linear2" gradientUnits="userSpaceOnUse" x1="7549.38916" y1="569.033325" x2="7549.38916" y2="11925.021484" gradientTransform="matrix(0.372093,0,0,0.372093,0,0)">
<stop offset="0" style="stop-color:rgb(100%,50.588238%,46.666667%);stop-opacity:1;"/>
<stop offset="1" style="stop-color:rgb(69.411767%,16.470589%,35.686275%);stop-opacity:1;"/>
</linearGradient>
<linearGradient id="linear3" gradientUnits="userSpaceOnUse" x1="86" y1="7.29354" x2="86" y2="159.518585" gradientTransform="matrix(0.372093,0,0,0.372093,0,0)">
<stop offset="0" style="stop-color:rgb(100%,50.588238%,46.666667%);stop-opacity:1;"/>
<stop offset="1" style="stop-color:rgb(69.411767%,16.470589%,35.686275%);stop-opacity:1;"/>
</linearGradient>
</defs>
<g id="surface5690116">
<path style=" stroke:none;fill-rule:nonzero;fill:url(#linear0);" d="M 55.3125 37.921875 C 54.328125 37.925781 53.386719 38.316406 52.695312 39.015625 C 52.003906 39.714844 51.617188 40.660156 51.625 41.640625 L 51.625 45.765625 C 51.25 47.972656 49.339844 50.015625 46.15625 51.667969 C 42.398438 53.613281 37.367188 54.683594 32.015625 54.683594 C 26.664062 54.683594 21.609375 53.613281 17.851562 51.664062 C 14.667969 50.015625 12.75 47.972656 12.375 45.765625 L 12.375 41.640625 C 12.375 39.605469 10.722656 37.953125 8.6875 37.953125 C 6.652344 37.953125 5 39.605469 5 41.640625 L 5 61.292969 C 5 61.550781 5.109375 61.800781 5.296875 61.980469 C 5.484375 62.164062 5.738281 62.257812 6 62.25 L 11.4375 62.25 C 11.691406 62.257812 11.9375 62.15625 12.117188 61.976562 C 12.292969 61.792969 12.386719 61.546875 12.375 61.292969 L 12.375 50.054688 C 13.5 51.308594 15.023438 52.457031 16.925781 53.441406 C 20.960938 55.53125 26.320312 56.679688 31.984375 56.679688 C 37.652344 56.679688 43.03125 55.53125 47.066406 53.441406 C 48.96875 52.457031 50.5 51.308594 51.625 50.054688 L 51.625 61.292969 C 51.613281 61.546875 51.707031 61.792969 51.882812 61.976562 C 52.0625 62.15625 52.308594 62.257812 52.5625 62.25 L 58 62.25 C 58.261719 62.257812 58.515625 62.164062 58.703125 61.980469 C 58.890625 61.800781 59 61.550781 59 61.292969 L 59 41.640625 C 59.007812 40.660156 58.621094 39.714844 57.929688 39.015625 C 57.238281 38.316406 56.296875 37.925781 55.3125 37.921875 Z M 8.6875 39.921875 C 9.140625 39.925781 9.574219 40.105469 9.890625 40.429688 C 10.207031 40.753906 10.382812 41.1875 10.375 41.640625 L 10.375 44.125 L 7 44.125 L 7 41.640625 C 6.992188 41.1875 7.167969 40.753906 7.484375 40.429688 C 7.800781 40.105469 8.234375 39.925781 8.6875 39.921875 Z M 7 60.25 L 7 46.125 L 10.375 46.125 L 10.375 60.25 Z M 55.3125 39.921875 C 55.765625 39.925781 56.199219 40.105469 56.515625 40.429688 C 56.832031 40.753906 57.007812 41.1875 57 41.640625 L 57 44.125 L 53.625 44.125 L 53.625 41.640625 C 53.617188 41.1875 53.792969 40.753906 54.109375 40.429688 C 54.425781 40.105469 54.859375 39.925781 55.3125 39.921875 Z M 53.625 60.25 L 53.625 46.125 L 57 46.125 L 57 60.25 Z M 53.625 60.25 "/>
<path style=" stroke:none;fill-rule:nonzero;fill:url(#linear1);" d="M 53.5 6.5 C 53.5 5.949219 53.050781 5.5 52.5 5.5 L 11.5 5.5 C 10.949219 5.5 10.5 5.949219 10.5 6.5 L 10.5 31.125 C 10.5 31.675781 10.949219 32.125 11.5 32.125 L 52.5 32.125 C 53.050781 32.125 53.5 31.675781 53.5 31.125 Z M 51.5 7.5 L 51.5 17.683594 L 38.265625 24.898438 C 36.976562 25.625 35.371094 25.480469 34.226562 24.539062 L 27.917969 19.269531 C 25.988281 17.691406 23.25 17.574219 21.191406 18.976562 L 12.5 24.71875 L 12.5 7.5 Z M 12.5 30.125 L 12.5 27.117188 L 22.300781 20.640625 L 22.316406 20.628906 C 23.636719 19.726562 25.398438 19.796875 26.640625 20.808594 L 32.953125 26.078125 C 34.726562 27.550781 37.222656 27.777344 39.234375 26.648438 L 51.5 19.960938 L 51.5 30.125 Z M 12.5 30.125 "/>
<path style=" stroke:none;fill-rule:nonzero;fill:url(#linear2);" d="M 35.941406 18.601562 C 38.605469 18.601562 40.769531 16.511719 40.769531 13.941406 C 40.769531 11.371094 38.605469 9.277344 35.941406 9.277344 C 33.277344 9.277344 31.109375 11.371094 31.109375 13.941406 C 31.109375 16.511719 33.277344 18.601562 35.941406 18.601562 Z M 35.941406 11.277344 C 37.5 11.277344 38.769531 12.472656 38.769531 13.941406 C 38.769531 15.410156 37.5 16.601562 35.941406 16.601562 C 34.378906 16.601562 33.109375 15.410156 33.109375 13.941406 C 33.109375 12.472656 34.378906 11.277344 35.941406 11.277344 Z M 35.941406 11.277344 "/>
<path style=" stroke:none;fill-rule:nonzero;fill:url(#linear3);" d="M 57.25 2.75 C 57.25 2.199219 56.800781 1.75 56.25 1.75 L 7.75 1.75 C 7.199219 1.75 6.75 2.199219 6.75 2.75 L 6.75 34.875 C 6.75 35.425781 7.199219 35.875 7.75 35.875 L 56.25 35.875 C 56.800781 35.875 57.25 35.425781 57.25 34.875 Z M 8.75 3.75 L 55.25 3.75 L 55.25 33.875 L 8.75 33.875 Z M 8.75 3.75 "/>
</g>
</svg>
