<svg xmlns="http://www.w3.org/2000/svg" xmlns:xlink="http://www.w3.org/1999/xlink" width="370" height="257" preserveAspectRatio="xMidYMid meet" version="1.0" viewBox="0 0 277.5 192.75" zoomAndPan="magnify"><path fill="#d8e0e6" fill-opacity="1" fill-rule="nonzero" d="M 96 115.226562 C 96.863281 115.226562 97.714844 115.144531 98.5625 114.976562 C 99.40625 114.808594 100.226562 114.558594 101.023438 114.226562 C 101.820312 113.898438 102.574219 113.492188 103.292969 113.015625 C 104.007812 112.535156 104.671875 111.992188 105.28125 111.382812 C 105.890625 110.773438 106.433594 110.109375 106.914062 109.394531 C 107.390625 108.675781 107.796875 107.921875 108.125 107.125 C 108.457031 106.328125 108.703125 105.507812 108.871094 104.664062 C 109.039062 103.816406 109.125 102.964844 109.125 102.101562 L 82.875 102.101562 C 82.875 102.964844 82.960938 103.816406 83.128906 104.664062 C 83.296875 105.507812 83.542969 106.328125 83.875 107.125 C 84.203125 107.921875 84.609375 108.675781 85.085938 109.394531 C 85.566406 110.109375 86.109375 110.773438 86.71875 111.382812 C 87.328125 111.992188 87.992188 112.535156 88.707031 113.015625 C 89.425781 113.492188 90.179688 113.898438 90.976562 114.226562 C 91.773438 114.558594 92.59375 114.808594 93.4375 114.976562 C 94.285156 115.144531 95.136719 115.226562 96 115.226562 Z M 96 115.226562"/><path fill="#e6b374" fill-opacity="1" fill-rule="nonzero" d="M 91.148438 93.570312 C 91.148438 93.832031 91.097656 94.082031 91 94.324219 C 90.898438 94.566406 90.753906 94.777344 90.566406 94.964844 C 90.378906 95.148438 90.164062 95.289062 89.921875 95.390625 C 89.675781 95.488281 89.421875 95.539062 89.160156 95.539062 C 88.894531 95.539062 88.640625 95.488281 88.398438 95.390625 C 88.152344 95.289062 87.9375 95.148438 87.75 94.964844 C 87.5625 94.777344 87.421875 94.566406 87.320312 94.324219 C 87.21875 94.082031 87.167969 93.832031 87.167969 93.570312 C 87.167969 93.308594 87.21875 93.058594 87.320312 92.816406 C 87.421875 92.578125 87.5625 92.363281 87.75 92.179688 C 87.9375 91.996094 88.152344 91.851562 88.398438 91.753906 C 88.640625 91.652344 88.894531 91.601562 89.160156 91.601562 C 89.421875 91.601562 89.675781 91.652344 89.921875 91.753906 C 90.164062 91.851562 90.378906 91.996094 90.566406 92.179688 C 90.753906 92.363281 90.898438 92.578125 91 92.816406 C 91.097656 93.058594 91.148438 93.308594 91.148438 93.570312 Z M 91.148438 93.570312"/><path fill="#5993de" fill-opacity="1" fill-rule="nonzero" d="M 92.71875 102.101562 L 92.71875 96.851562 C 92.71875 96.679688 92.683594 96.511719 92.617188 96.351562 C 92.550781 96.1875 92.457031 96.046875 92.335938 95.925781 C 92.210938 95.800781 92.070312 95.707031 91.910156 95.640625 C 91.746094 95.574219 91.582031 95.539062 91.40625 95.539062 L 87.46875 95.539062 C 87.292969 95.539062 87.128906 95.574219 86.964844 95.640625 C 86.804688 95.707031 86.664062 95.800781 86.539062 95.925781 C 86.417969 96.046875 86.324219 96.1875 86.257812 96.351562 C 86.191406 96.511719 86.15625 96.679688 86.15625 96.851562 L 86.15625 102.101562 Z M 92.71875 102.101562"/><path fill="#e6b374" fill-opacity="1" fill-rule="nonzero" d="M 104.53125 93.570312 C 104.53125 93.832031 104.480469 94.082031 104.382812 94.324219 C 104.28125 94.566406 104.140625 94.777344 103.953125 94.964844 C 103.769531 95.148438 103.558594 95.289062 103.316406 95.390625 C 103.074219 95.488281 102.824219 95.539062 102.5625 95.539062 C 102.300781 95.539062 102.050781 95.488281 101.808594 95.390625 C 101.566406 95.289062 101.355469 95.148438 101.171875 94.964844 C 100.984375 94.777344 100.84375 94.566406 100.742188 94.324219 C 100.644531 94.082031 100.59375 93.832031 100.59375 93.570312 C 100.59375 93.308594 100.644531 93.058594 100.742188 92.816406 C 100.84375 92.578125 100.984375 92.363281 101.171875 92.179688 C 101.355469 91.996094 101.566406 91.851562 101.808594 91.753906 C 102.050781 91.652344 102.300781 91.601562 102.5625 91.601562 C 102.824219 91.601562 103.074219 91.652344 103.316406 91.753906 C 103.558594 91.851562 103.769531 91.996094 103.953125 92.179688 C 104.140625 92.363281 104.28125 92.578125 104.382812 92.816406 C 104.480469 93.058594 104.53125 93.308594 104.53125 93.570312 Z M 104.53125 93.570312"/><path fill="#5993de" fill-opacity="1" fill-rule="nonzero" d="M 105.84375 102.101562 L 105.84375 96.851562 C 105.84375 96.679688 105.808594 96.511719 105.742188 96.351562 C 105.675781 96.1875 105.582031 96.046875 105.460938 95.925781 C 105.335938 95.800781 105.195312 95.707031 105.035156 95.640625 C 104.871094 95.574219 104.707031 95.539062 104.53125 95.539062 L 100.59375 95.539062 C 100.417969 95.539062 100.253906 95.574219 100.089844 95.640625 C 99.929688 95.707031 99.789062 95.800781 99.664062 95.925781 C 99.542969 96.046875 99.449219 96.1875 99.382812 96.351562 C 99.316406 96.511719 99.28125 96.679688 99.28125 96.851562 L 99.28125 102.101562 Z M 105.84375 102.101562"/><path fill="#ffc780" fill-opacity="1" fill-rule="nonzero" d="M 97.96875 93.570312 C 97.96875 93.832031 97.917969 94.082031 97.820312 94.324219 C 97.71875 94.566406 97.578125 94.777344 97.390625 94.964844 C 97.207031 95.148438 96.996094 95.289062 96.753906 95.390625 C 96.511719 95.488281 96.261719 95.539062 96 95.539062 C 95.738281 95.539062 95.488281 95.488281 95.246094 95.390625 C 95.003906 95.289062 94.792969 95.148438 94.609375 94.964844 C 94.421875 94.777344 94.28125 94.566406 94.179688 94.324219 C 94.082031 94.082031 94.03125 93.832031 94.03125 93.570312 C 94.03125 93.308594 94.082031 93.058594 94.179688 92.816406 C 94.28125 92.578125 94.421875 92.363281 94.609375 92.179688 C 94.792969 91.996094 95.003906 91.851562 95.246094 91.753906 C 95.488281 91.652344 95.738281 91.601562 96 91.601562 C 96.261719 91.601562 96.511719 91.652344 96.753906 91.753906 C 96.996094 91.851562 97.207031 91.996094 97.390625 92.179688 C 97.578125 92.363281 97.71875 92.578125 97.820312 92.816406 C 97.917969 93.058594 97.96875 93.308594 97.96875 93.570312 Z M 97.96875 93.570312"/><path fill="#6f9fde" fill-opacity="1" fill-rule="nonzero" d="M 99.28125 102.101562 L 99.28125 96.851562 C 99.28125 96.679688 99.246094 96.511719 99.179688 96.351562 C 99.113281 96.1875 99.019531 96.046875 98.898438 95.925781 C 98.773438 95.800781 98.632812 95.707031 98.472656 95.640625 C 98.308594 95.574219 98.144531 95.539062 97.96875 95.539062 L 94.03125 95.539062 C 93.855469 95.539062 93.691406 95.574219 93.527344 95.640625 C 93.367188 95.707031 93.226562 95.800781 93.101562 95.925781 C 92.980469 96.046875 92.886719 96.1875 92.820312 96.351562 C 92.753906 96.511719 92.71875 96.679688 92.71875 96.851562 L 92.71875 102.101562 Z M 99.28125 102.101562"/><path fill="#7083a6" fill-opacity="1" fill-rule="nonzero" d="M 100.460938 82.414062 C 100.460938 82.222656 100.449219 82.027344 100.421875 81.839844 C 100.394531 81.613281 100.480469 81.449219 100.679688 81.347656 L 100.984375 81.179688 C 101.109375 81.113281 101.191406 81.011719 101.230469 80.875 C 101.269531 80.738281 101.25 80.609375 101.179688 80.488281 L 100.332031 79.089844 C 100.253906 78.96875 100.148438 78.890625 100.007812 78.851562 C 99.867188 78.816406 99.734375 78.835938 99.609375 78.90625 L 99.300781 79.074219 C 99.089844 79.1875 98.890625 79.171875 98.699219 79.027344 C 98.394531 78.800781 98.066406 78.621094 97.714844 78.476562 C 97.496094 78.398438 97.378906 78.242188 97.371094 78.003906 L 97.371094 77.667969 C 97.371094 77.527344 97.316406 77.40625 97.214844 77.308594 C 97.113281 77.210938 96.988281 77.164062 96.847656 77.164062 L 95.152344 77.164062 C 95.011719 77.164062 94.890625 77.210938 94.789062 77.308594 C 94.683594 77.40625 94.632812 77.527344 94.628906 77.667969 L 94.628906 78.007812 C 94.621094 78.242188 94.503906 78.398438 94.285156 78.476562 C 93.933594 78.617188 93.605469 78.800781 93.300781 79.023438 C 93.109375 79.167969 92.910156 79.1875 92.699219 79.074219 L 92.390625 78.902344 C 92.261719 78.832031 92.132812 78.816406 91.992188 78.851562 C 91.851562 78.886719 91.742188 78.964844 91.667969 79.089844 L 90.820312 80.488281 C 90.75 80.609375 90.730469 80.738281 90.769531 80.875 C 90.804688 81.011719 90.886719 81.113281 91.011719 81.179688 L 91.316406 81.347656 C 91.519531 81.449219 91.605469 81.613281 91.582031 81.839844 C 91.527344 82.222656 91.527344 82.605469 91.582031 82.992188 C 91.605469 83.214844 91.519531 83.378906 91.316406 83.484375 L 91.011719 83.652344 C 90.886719 83.71875 90.804688 83.816406 90.769531 83.953125 C 90.730469 84.089844 90.746094 84.21875 90.820312 84.339844 L 91.667969 85.738281 C 91.746094 85.863281 91.851562 85.941406 91.992188 85.976562 C 92.132812 86.011719 92.265625 85.996094 92.390625 85.925781 L 92.699219 85.753906 C 92.910156 85.640625 93.109375 85.660156 93.300781 85.804688 C 93.605469 86.027344 93.933594 86.210938 94.285156 86.351562 C 94.507812 86.429688 94.621094 86.585938 94.628906 86.824219 L 94.628906 87.160156 C 94.632812 87.300781 94.683594 87.421875 94.785156 87.519531 C 94.890625 87.621094 95.011719 87.667969 95.152344 87.664062 L 96.84375 87.664062 C 96.988281 87.667969 97.109375 87.621094 97.210938 87.519531 C 97.3125 87.421875 97.367188 87.300781 97.371094 87.160156 L 97.371094 86.824219 C 97.378906 86.585938 97.492188 86.429688 97.714844 86.351562 C 98.066406 86.210938 98.394531 86.027344 98.699219 85.804688 C 98.890625 85.660156 99.089844 85.644531 99.300781 85.753906 L 99.609375 85.925781 C 99.738281 85.996094 99.867188 86.011719 100.007812 85.976562 C 100.148438 85.941406 100.257812 85.863281 100.332031 85.742188 L 101.179688 84.339844 C 101.25 84.21875 101.269531 84.089844 101.230469 83.957031 C 101.191406 83.820312 101.109375 83.71875 100.984375 83.652344 L 100.679688 83.484375 C 100.480469 83.378906 100.394531 83.214844 100.417969 82.992188 C 100.449219 82.800781 100.460938 82.609375 100.460938 82.414062 Z M 100.460938 82.414062"/><path fill="#e6eef3" fill-opacity="1" fill-rule="nonzero" d="M 97.96875 82.414062 C 97.96875 82.675781 97.917969 82.925781 97.820312 83.167969 C 97.71875 83.410156 97.578125 83.621094 97.390625 83.808594 C 97.207031 83.992188 96.996094 84.132812 96.753906 84.234375 C 96.511719 84.332031 96.261719 84.382812 96 84.382812 C 95.738281 84.382812 95.488281 84.332031 95.246094 84.234375 C 95.003906 84.132812 94.792969 83.992188 94.609375 83.808594 C 94.421875 83.621094 94.28125 83.410156 94.179688 83.167969 C 94.082031 82.925781 94.03125 82.675781 94.03125 82.414062 C 94.03125 82.152344 94.082031 81.902344 94.179688 81.660156 C 94.28125 81.421875 94.421875 81.207031 94.609375 81.023438 C 94.792969 80.839844 95.003906 80.695312 95.246094 80.597656 C 95.488281 80.496094 95.738281 80.445312 96 80.445312 C 96.261719 80.445312 96.511719 80.496094 96.753906 80.597656 C 96.996094 80.695312 97.207031 80.839844 97.390625 81.023438 C 97.578125 81.207031 97.71875 81.421875 97.820312 81.660156 C 97.917969 81.902344 97.96875 82.152344 97.96875 82.414062 Z M 97.96875 82.414062"/><path fill="#90aacc" fill-opacity="1" fill-rule="nonzero" d="M 110.121094 100.542969 L 109.097656 99.722656 C 113.773438 93.910156 115.023438 87.8125 112.285156 84.191406 C 110.523438 81.863281 107.292969 80.765625 103.191406 81.101562 L 103.085938 79.789062 C 107.65625 79.414062 111.289062 80.699219 113.332031 83.398438 C 116.445312 87.519531 115.183594 94.25 110.121094 100.542969 Z M 110.121094 100.542969"/><path fill="#90aacc" fill-opacity="1" fill-rule="nonzero" d="M 84.039062 112.332031 C 82.972656 112.121094 81.980469 111.730469 81.058594 111.160156 C 80.136719 110.59375 79.339844 109.882812 78.667969 109.03125 C 77.933594 107.992188 77.425781 106.851562 77.15625 105.605469 C 76.882812 104.363281 76.863281 103.113281 77.101562 101.863281 C 77.886719 96.398438 82.039062 90.421875 88.195312 85.875 C 88.480469 85.660156 88.773438 85.453125 89.0625 85.25 L 89.8125 86.328125 C 89.53125 86.523438 89.253906 86.722656 88.976562 86.929688 C 83.179688 91.210938 79.132812 97.003906 78.398438 102.050781 C 78.191406 103.128906 78.199219 104.203125 78.429688 105.277344 C 78.65625 106.351562 79.085938 107.339844 79.714844 108.238281 C 80.292969 108.96875 80.980469 109.574219 81.777344 110.058594 C 82.570312 110.542969 83.425781 110.875 84.335938 111.054688 Z M 84.039062 112.332031"/><path fill="#4b9d93" fill-opacity="1" fill-rule="nonzero" d="M 83.546875 102.757812 C 83.652344 104.734375 84.195312 106.578125 85.183594 108.292969 C 86.429688 107.808594 87.710938 107.445312 89.027344 107.203125 C 88.71875 105.738281 88.546875 104.257812 88.515625 102.757812 Z M 83.546875 102.757812"/><path fill="#4b9d93" fill-opacity="1" fill-rule="nonzero" d="M 96 111.71875 C 96.019531 111.71875 96.035156 111.71875 96.054688 111.71875 C 96.734375 111.71875 97.417969 111.742188 98.085938 111.78125 L 98.195312 111.789062 C 98.730469 111.824219 99.253906 111.875 99.765625 111.933594 C 100.472656 110.789062 101.007812 109.566406 101.367188 108.269531 C 97.789062 107.765625 94.210938 107.765625 90.632812 108.269531 C 90.992188 109.566406 91.527344 110.789062 92.234375 111.933594 C 93.484375 111.789062 94.742188 111.71875 96 111.71875 Z M 96 111.71875"/><path fill="#4b9d93" fill-opacity="1" fill-rule="nonzero" d="M 89.140625 112.503906 C 89.667969 112.367188 90.230469 112.246094 90.828125 112.140625 C 90.179688 110.980469 89.679688 109.761719 89.332031 108.484375 C 88.164062 108.695312 87.023438 109.007812 85.910156 109.417969 C 86.800781 110.640625 87.878906 111.667969 89.140625 112.503906 Z M 89.140625 112.503906"/><path fill="#4b9d93" fill-opacity="1" fill-rule="nonzero" d="M 101.679688 106.992188 C 101.976562 105.597656 102.140625 104.183594 102.171875 102.757812 L 89.828125 102.757812 C 89.859375 104.183594 90.023438 105.597656 90.320312 106.992188 C 94.105469 106.441406 97.890625 106.441406 101.675781 106.992188 Z M 101.679688 106.992188"/><path fill="#a8aeb3" fill-opacity="1" fill-rule="nonzero" d="M 101.109375 113.460938 C 100.75 113.394531 100.382812 113.335938 100 113.28125 L 99.996094 113.28125 C 99.390625 113.203125 98.765625 113.144531 98.128906 113.101562 L 97.976562 113.09375 C 97.363281 113.054688 96.730469 113.035156 96.097656 113.035156 C 94.722656 113.027344 93.355469 113.109375 91.996094 113.28125 C 91.613281 113.335938 91.25 113.394531 90.890625 113.460938 C 92.515625 114.203125 94.214844 114.570312 96 114.570312 C 97.785156 114.570312 99.484375 114.203125 101.109375 113.460938 Z M 101.109375 113.460938"/><path fill="#4b9d93" fill-opacity="1" fill-rule="nonzero" d="M 108.453125 102.757812 L 103.484375 102.757812 C 103.453125 104.257812 103.28125 105.738281 102.972656 107.207031 C 104.289062 107.445312 105.570312 107.808594 106.816406 108.292969 C 107.804688 106.578125 108.347656 104.734375 108.453125 102.757812 Z M 108.453125 102.757812"/><path fill="#4b9d93" fill-opacity="1" fill-rule="nonzero" d="M 102.667969 108.484375 C 102.320312 109.761719 101.820312 110.980469 101.171875 112.140625 C 101.769531 112.242188 102.332031 112.367188 102.859375 112.503906 C 104.121094 111.671875 105.199219 110.640625 106.089844 109.417969 C 104.976562 109.007812 103.835938 108.695312 102.667969 108.484375 Z M 102.667969 108.484375"/><g fill="#004aad" fill-opacity="1"><g><g><path d="M 11.921875 -5.734375 C 11.921875 -3.804688 11.445312 -2.34375 10.5 -1.34375 C 9.5625 -0.34375 8.1875 0.15625 6.375 0.15625 C 4.582031 0.15625 3.207031 -0.34375 2.25 -1.34375 C 1.289062 -2.351562 0.8125 -3.820312 0.8125 -5.75 C 0.8125 -7.644531 1.285156 -9.09375 2.234375 -10.09375 C 3.191406 -11.101562 4.578125 -11.609375 6.390625 -11.609375 C 8.203125 -11.609375 9.578125 -11.109375 10.515625 -10.109375 C 11.453125 -9.117188 11.921875 -7.660156 11.921875 -5.734375 Z M 4.0625 -5.734375 C 4.0625 -3.523438 4.832031 -2.421875 6.375 -2.421875 C 7.15625 -2.421875 7.734375 -2.6875 8.109375 -3.21875 C 8.484375 -3.757812 8.671875 -4.597656 8.671875 -5.734375 C 8.671875 -6.867188 8.476562 -7.707031 8.09375 -8.25 C 7.71875 -8.800781 7.148438 -9.078125 6.390625 -9.078125 C 4.835938 -9.078125 4.0625 -7.960938 4.0625 -5.734375 Z M 4.0625 -5.734375" transform="translate(117.307113, 102.724598)"/></g></g></g><g fill="#004aad" fill-opacity="1"><g><g><path d="M 0.34375 -3.078125 L 0.34375 -5.515625 L 4.75 -5.515625 L 4.75 -3.078125 Z M 0.34375 -3.078125" transform="translate(130.053999, 102.724598)"/></g></g></g><g fill="#004aad" fill-opacity="1"><g><g><path d="M 3.375 0 L 0 -8.859375 L 3.1875 -8.859375 L 4.6875 -3.625 C 4.695312 -3.59375 4.707031 -3.546875 4.71875 -3.484375 C 4.738281 -3.421875 4.753906 -3.347656 4.765625 -3.265625 C 4.785156 -3.179688 4.800781 -3.085938 4.8125 -2.984375 C 4.820312 -2.890625 4.828125 -2.800781 4.828125 -2.71875 L 4.890625 -2.71875 C 4.890625 -2.988281 4.9375 -3.285156 5.03125 -3.609375 L 6.59375 -8.859375 L 9.78125 -8.859375 L 6.40625 0 Z M 3.375 0" transform="translate(135.1387, 102.724598)"/></g></g></g><g fill="#004aad" fill-opacity="1"><g><g><path d="M 6.828125 0 L 6.25 -1.171875 L 6.1875 -1.171875 C 5.769531 -0.660156 5.347656 -0.3125 4.921875 -0.125 C 4.492188 0.0625 3.941406 0.15625 3.265625 0.15625 C 2.429688 0.15625 1.773438 -0.09375 1.296875 -0.59375 C 0.816406 -1.09375 0.578125 -1.796875 0.578125 -2.703125 C 0.578125 -3.648438 0.90625 -4.351562 1.5625 -4.8125 C 2.21875 -5.269531 3.171875 -5.53125 4.421875 -5.59375 L 5.890625 -5.640625 L 5.890625 -5.765625 C 5.890625 -6.492188 5.53125 -6.859375 4.8125 -6.859375 C 4.164062 -6.859375 3.347656 -6.640625 2.359375 -6.203125 L 1.46875 -8.21875 C 2.5 -8.75 3.800781 -9.015625 5.375 -9.015625 C 6.507812 -9.015625 7.390625 -8.734375 8.015625 -8.171875 C 8.640625 -7.609375 8.953125 -6.820312 8.953125 -5.8125 L 8.953125 0 Z M 4.5625 -2 C 4.9375 -2 5.253906 -2.113281 5.515625 -2.34375 C 5.773438 -2.582031 5.90625 -2.890625 5.90625 -3.265625 L 5.90625 -3.953125 L 5.203125 -3.921875 C 4.203125 -3.890625 3.703125 -3.519531 3.703125 -2.8125 C 3.703125 -2.269531 3.988281 -2 4.5625 -2 Z M 4.5625 -2" transform="translate(144.909756, 102.724598)"/></g></g></g><g fill="#004aad" fill-opacity="1"><g><g><path d="M 6.328125 -9.0625 C 5.585938 -9.0625 5.007812 -8.757812 4.59375 -8.15625 C 4.1875 -7.550781 3.984375 -6.722656 3.984375 -5.671875 C 3.984375 -3.472656 4.820312 -2.375 6.5 -2.375 C 7 -2.375 7.484375 -2.441406 7.953125 -2.578125 C 8.429688 -2.722656 8.910156 -2.894531 9.390625 -3.09375 L 9.390625 -0.484375 C 8.441406 -0.0546875 7.363281 0.15625 6.15625 0.15625 C 4.4375 0.15625 3.113281 -0.34375 2.1875 -1.34375 C 1.269531 -2.34375 0.8125 -3.789062 0.8125 -5.6875 C 0.8125 -6.863281 1.035156 -7.898438 1.484375 -8.796875 C 1.929688 -9.691406 2.570312 -10.378906 3.40625 -10.859375 C 4.238281 -11.347656 5.222656 -11.59375 6.359375 -11.59375 C 7.585938 -11.59375 8.765625 -11.320312 9.890625 -10.78125 L 8.953125 -8.359375 C 8.523438 -8.554688 8.097656 -8.722656 7.671875 -8.859375 C 7.253906 -8.992188 6.804688 -9.0625 6.328125 -9.0625 Z M 6.328125 -9.0625" transform="translate(154.876072, 102.724598)"/></g></g></g><g fill="#004aad" fill-opacity="1"><g><g><path d="M 9.515625 -4.453125 C 9.515625 -3.003906 9.125 -1.875 8.34375 -1.0625 C 7.5625 -0.25 6.472656 0.15625 5.078125 0.15625 C 3.734375 0.15625 2.660156 -0.253906 1.859375 -1.078125 C 1.066406 -1.910156 0.671875 -3.035156 0.671875 -4.453125 C 0.671875 -5.890625 1.0625 -7.007812 1.84375 -7.8125 C 2.625 -8.613281 3.71875 -9.015625 5.125 -9.015625 C 5.988281 -9.015625 6.753906 -8.828125 7.421875 -8.453125 C 8.085938 -8.085938 8.601562 -7.554688 8.96875 -6.859375 C 9.332031 -6.171875 9.515625 -5.367188 9.515625 -4.453125 Z M 3.78125 -4.453125 C 3.78125 -3.691406 3.878906 -3.109375 4.078125 -2.703125 C 4.285156 -2.304688 4.628906 -2.109375 5.109375 -2.109375 C 5.578125 -2.109375 5.910156 -2.304688 6.109375 -2.703125 C 6.304688 -3.109375 6.40625 -3.691406 6.40625 -4.453125 C 6.40625 -5.203125 6.304688 -5.769531 6.109375 -6.15625 C 5.910156 -6.539062 5.570312 -6.734375 5.09375 -6.734375 C 4.625 -6.734375 4.285156 -6.539062 4.078125 -6.15625 C 3.878906 -5.78125 3.78125 -5.210938 3.78125 -4.453125 Z M 3.78125 -4.453125" transform="translate(165.256354, 102.724598)"/></g></g></g><g fill="#004aad" fill-opacity="1"><g><g><path d="M 6.40625 -9.015625 C 6.664062 -9.015625 6.914062 -8.992188 7.15625 -8.953125 L 7.328125 -8.921875 L 7.0625 -6.03125 C 6.8125 -6.09375 6.460938 -6.125 6.015625 -6.125 C 5.347656 -6.125 4.863281 -5.972656 4.5625 -5.671875 C 4.257812 -5.367188 4.109375 -4.929688 4.109375 -4.359375 L 4.109375 0 L 1.0625 0 L 1.0625 -8.859375 L 3.328125 -8.859375 L 3.8125 -7.4375 L 3.953125 -7.4375 C 4.210938 -7.90625 4.566406 -8.285156 5.015625 -8.578125 C 5.472656 -8.867188 5.9375 -9.015625 6.40625 -9.015625 Z M 6.40625 -9.015625" transform="translate(175.449183, 102.724598)"/></g></g></g><g fill="#004aad" fill-opacity="1"><g><g><path d="M 6.375 0.15625 C 5.925781 0.15625 5.523438 0.0820312 5.171875 -0.0625 C 4.816406 -0.21875 4.460938 -0.488281 4.109375 -0.875 L 3.96875 -0.875 C 4.0625 -0.25 4.109375 0.140625 4.109375 0.296875 L 4.109375 3.84375 L 1.0625 3.84375 L 1.0625 -8.859375 L 3.546875 -8.859375 L 3.96875 -7.734375 L 4.109375 -7.734375 C 4.679688 -8.585938 5.46875 -9.015625 6.46875 -9.015625 C 7.445312 -9.015625 8.210938 -8.609375 8.765625 -7.796875 C 9.328125 -6.984375 9.609375 -5.867188 9.609375 -4.453125 C 9.609375 -3.023438 9.316406 -1.898438 8.734375 -1.078125 C 8.148438 -0.253906 7.363281 0.15625 6.375 0.15625 Z M 5.34375 -6.609375 C 4.894531 -6.609375 4.582031 -6.445312 4.40625 -6.125 C 4.226562 -5.8125 4.128906 -5.335938 4.109375 -4.703125 L 4.109375 -4.46875 C 4.109375 -3.707031 4.207031 -3.15625 4.40625 -2.8125 C 4.613281 -2.476562 4.9375 -2.3125 5.375 -2.3125 C 5.769531 -2.3125 6.054688 -2.476562 6.234375 -2.8125 C 6.410156 -3.144531 6.5 -3.703125 6.5 -4.484375 C 6.5 -5.242188 6.410156 -5.785156 6.234375 -6.109375 C 6.054688 -6.441406 5.757812 -6.609375 5.34375 -6.609375 Z M 5.34375 -6.609375" transform="translate(182.955167, 102.724598)"/></g></g></g><g fill="#004aad" fill-opacity="1"><g><g><path d="M 7.890625 -2.71875 C 7.890625 -1.769531 7.566406 -1.050781 6.921875 -0.5625 C 6.273438 -0.0820312 5.347656 0.15625 4.140625 0.15625 C 3.484375 0.15625 2.910156 0.117188 2.421875 0.046875 C 1.941406 -0.0234375 1.453125 -0.15625 0.953125 -0.34375 L 0.953125 -2.78125 C 1.421875 -2.570312 1.9375 -2.398438 2.5 -2.265625 C 3.070312 -2.128906 3.578125 -2.0625 4.015625 -2.0625 C 4.679688 -2.0625 5.015625 -2.210938 5.015625 -2.515625 C 5.015625 -2.671875 4.921875 -2.8125 4.734375 -2.9375 C 4.546875 -3.0625 4.007812 -3.300781 3.125 -3.65625 C 2.3125 -3.988281 1.742188 -4.363281 1.421875 -4.78125 C 1.097656 -5.207031 0.9375 -5.75 0.9375 -6.40625 C 0.9375 -7.226562 1.253906 -7.867188 1.890625 -8.328125 C 2.523438 -8.785156 3.421875 -9.015625 4.578125 -9.015625 C 5.160156 -9.015625 5.707031 -8.945312 6.21875 -8.8125 C 6.738281 -8.6875 7.273438 -8.503906 7.828125 -8.265625 L 7 -6.296875 C 6.59375 -6.472656 6.160156 -6.625 5.703125 -6.75 C 5.253906 -6.882812 4.882812 -6.953125 4.59375 -6.953125 C 4.09375 -6.953125 3.84375 -6.828125 3.84375 -6.578125 C 3.84375 -6.429688 3.929688 -6.300781 4.109375 -6.1875 C 4.285156 -6.082031 4.789062 -5.867188 5.625 -5.546875 C 6.238281 -5.285156 6.695312 -5.03125 7 -4.78125 C 7.3125 -4.539062 7.535156 -4.253906 7.671875 -3.921875 C 7.816406 -3.597656 7.890625 -3.195312 7.890625 -2.71875 Z M 7.890625 -2.71875" transform="translate(193.241723, 102.724598)"/></g></g></g></svg>