<svg xmlns="http://www.w3.org/2000/svg"  viewBox="0 0 64 64" width="64px" height="64px"><path fill="#d8e0e6" d="M32,61A20,20,0,0,0,52,41H12A20,20,0,0,0,32,61Z"/><ellipse cx="21.575" cy="28" fill="#e6b374" rx="3.034" ry="3"/><path fill="#5993de" d="M27,41V33a2,2,0,0,0-2-2H19a2,2,0,0,0-2,2v8Z"/><circle cx="42" cy="28" r="3" fill="#e6b374"/><path fill="#5993de" d="M47,41V33a2,2,0,0,0-2-2H39a2,2,0,0,0-2,2v8Z"/><circle cx="32" cy="28" r="3" fill="#ffc780"/><path fill="#6f9fde" d="M37,41V33a2,2,0,0,0-2-2H29a2,2,0,0,0-2,2v8Z"/><path fill="#7083a6" d="M38.8,11a6.218,6.218,0,0,0-.063-.879.743.743,0,0,1,.395-.748l.466-.257a.75.75,0,0,0,.294-1.049L38.6,5.933a.825.825,0,0,0-1.1-.281l-.471.26a.852.852,0,0,1-.915-.075A6.884,6.884,0,0,0,34.616,5a.788.788,0,0,1-.524-.719V3.768a.786.786,0,0,0-.8-.768H30.711a.786.786,0,0,0-.8.768v.515A.788.788,0,0,1,29.384,5a6.884,6.884,0,0,0-1.5.835.852.852,0,0,1-.915.075l-.471-.26a.825.825,0,0,0-1.1.281L24.108,8.067A.75.75,0,0,0,24.4,9.116l.466.257a.743.743,0,0,1,.4.748,6.164,6.164,0,0,0,0,1.758.743.743,0,0,1-.4.748l-.466.257a.75.75,0,0,0-.294,1.049L25.4,16.067a.825.825,0,0,0,1.1.281l.471-.26a.852.852,0,0,1,.915.075,6.884,6.884,0,0,0,1.5.835.788.788,0,0,1,.524.719v.515a.786.786,0,0,0,.8.768h2.578a.786.786,0,0,0,.8-.768v-.515A.788.788,0,0,1,34.616,17a6.884,6.884,0,0,0,1.5-.835.852.852,0,0,1,.915-.075l.471.26a.825.825,0,0,0,1.1-.281l1.288-2.134a.75.75,0,0,0-.294-1.049l-.466-.257a.743.743,0,0,1-.395-.748A6.218,6.218,0,0,0,38.8,11Z"/><circle cx="32" cy="11" r="3" fill="#e6eef3"/><path fill="#90aacc" d="M53.519,38.626,51.96,37.374c7.121-8.856,9.026-18.146,4.853-23.668C54.132,10.158,49.21,8.488,42.961,9L42.8,7c6.96-.571,12.5,1.383,15.611,5.5C63.153,18.778,61.233,29.033,53.519,38.626Z"/><path fill="#90aacc" d="M13.771,56.59a13.863,13.863,0,0,1-8.18-5.032A14.309,14.309,0,0,1,3.2,40.633C4.4,32.311,10.724,23.2,20.106,16.27c.438-.325.88-.64,1.323-.949l1.142,1.643q-.642.446-1.276.914c-8.829,6.524-15,15.353-16.116,23.041a12.368,12.368,0,0,0,2.008,9.433,11.916,11.916,0,0,0,7.042,4.291Z"/><path fill="#4b9d93" d="M13.026,42a18.855,18.855,0,0,0,2.494,8.431,32.512,32.512,0,0,1,5.853-1.656A36.846,36.846,0,0,1,20.594,42Z"/><path fill="#4b9d93" d="M32,55.654v0c.029,0,.056,0,.085,0,1.037,0,2.074.033,3.092.095l.171.011c.813.053,1.608.129,2.388.22a21.555,21.555,0,0,0,2.44-5.58,58.415,58.415,0,0,0-16.352,0,21.536,21.536,0,0,0,2.439,5.58A50.07,50.07,0,0,1,32,55.654Z"/><path fill="#4b9d93" d="M21.545,56.85q1.213-.315,2.572-.556a24.794,24.794,0,0,1-2.278-5.571,31.464,31.464,0,0,0-5.212,1.425A19.143,19.143,0,0,0,21.545,56.85Z"/><path fill="#4b9d93" d="M40.652,48.45A34.677,34.677,0,0,0,41.406,42H22.594a34.687,34.687,0,0,0,.754,6.45,60.294,60.294,0,0,1,17.3,0Z"/><path fill="#a8aeb3" d="M39.785,58.309c-.547-.1-1.106-.194-1.687-.275h-.01c-.921-.121-1.872-.21-2.844-.273l-.23-.015c-.937-.056-1.9-.085-2.867-.088a47.492,47.492,0,0,0-6.251.378c-.579.08-1.136.174-1.681.274a18.766,18.766,0,0,0,15.57,0Z"/><path fill="#4b9d93" d="M50.974,42H43.406a36.857,36.857,0,0,1-.779,6.776,32.41,32.41,0,0,1,5.853,1.655A18.855,18.855,0,0,0,50.974,42Z"/><path fill="#4b9d93" d="M42.161,50.723a24.822,24.822,0,0,1-2.278,5.571q1.359.24,2.572.556a19.143,19.143,0,0,0,4.918-4.7A31.464,31.464,0,0,0,42.161,50.723Z"/></svg>