<?xml version="1.0" encoding="UTF-8"?>
<svg
   xmlns:dc="http://purl.org/dc/elements/1.1/"
   xmlns:cc="http://creativecommons.org/ns#"
   xmlns:rdf="http://www.w3.org/1999/02/22-rdf-syntax-ns#"
   xmlns:svg="http://www.w3.org/2000/svg"
   xmlns="http://www.w3.org/2000/svg"
   xmlns:sodipodi="http://sodipodi.sourceforge.net/DTD/sodipodi-0.dtd"
   xmlns:inkscape="http://www.inkscape.org/namespaces/inkscape"
   width="109.00189"
   height="16.10874"
   viewBox="0 0 28.840083 4.2621041"
   version="1.1"
   id="svg6772"
   inkscape:version="0.92.0 r15299"
   sodipodi:docname="coursera.svg">
  <defs
     id="defs6766" />
  <sodipodi:namedview
     id="base"
     pagecolor="#ffffff"
     bordercolor="#666666"
     borderopacity="1.0"
     inkscape:pageopacity="0.0"
     inkscape:pageshadow="2"
     inkscape:zoom="8.3054101"
     inkscape:cx="54.000945"
     inkscape:cy="7.5543685"
     inkscape:document-units="mm"
     inkscape:current-layer="layer1"
     showgrid="false"
     fit-margin-top="0"
     fit-margin-left="0"
     fit-margin-right="0"
     fit-margin-bottom="0"
     units="px"
     inkscape:window-width="1280"
     inkscape:window-height="744"
     inkscape:window-x="-4"
     inkscape:window-y="-4"
     inkscape:window-maximized="1" />
  <metadata
     id="metadata6769">
    <rdf:RDF>
      <cc:Work
         rdf:about="">
        <dc:format>image/svg+xml</dc:format>
        <dc:type
           rdf:resource="http://purl.org/dc/dcmitype/StillImage" />
        <dc:title></dc:title>
      </cc:Work>
    </rdf:RDF>
  </metadata>
  <g
     inkscape:label="Layer 1"
     inkscape:groupmode="layer"
     id="layer1"
     transform="translate(-87.00987,-152.61761)">
    <g
       id="g6748"
       transform="translate(-689.37227,-697.32616)">
      <path
         id="path6688"
         d="m 790.87678,851.35214 c 0.0175,-0.33576 0.13785,-0.61013 0.32596,-0.82418 v -0.28522 h -0.25003 c -0.50535,0 -0.93318,0.19368 -1.18189,0.6313 h -0.0145 v -0.58314 h -1.2962 v 3.55626 h 1.29646 v -1.43563 c 0,-0.60933 0.17833,-1.07394 0.89773,-1.07394 0.0783,5.3e-4 0.15161,0.005 0.22252,0.0145 z"
         inkscape:connector-curvature="0"
         style="fill:#4a89dc;stroke-width:0.26458332" />
      <path
         id="path6690"
         d="m 800.69255,851.33917 c 0.10769,-0.31432 0.28232,-0.59425 0.50933,-0.81888 v -0.27781 h -0.2495 c -0.50562,0 -0.93293,0.19367 -1.18296,0.63103 h -0.014 v -0.58261 h -1.29699 v 3.55626 h 1.29699 v -1.43563 c 0,-0.60933 0.17886,-1.07394 0.89826,-1.07394 z"
         inkscape:connector-curvature="0"
         style="fill:#4a89dc;stroke-width:0.26458332" />
      <path
         id="path6692"
         d="m 793.50965,851.20582 c -0.20003,-0.10398 -0.47837,-0.1733 -0.69983,-0.1733 -0.14869,0 -0.4056,0.0619 -0.4056,0.24263 0,0.24288 0.4056,0.27728 0.58499,0.31273 0.60431,0.11748 1.06151,0.39503 1.06151,1.05278 0,0.93557 -0.87657,1.32503 -1.72508,1.32503 -0.52044,0 -1.03241,-0.14578 -1.47479,-0.40931 l 0.47016,-0.88106 c 0.26326,0.18098 0.70512,0.36063 1.02579,0.36063 0.16404,0 0.40614,-0.0759 0.40614,-0.27014 0,-0.27729 -0.40614,-0.29184 -0.8128,-0.39555 -0.40561,-0.10399 -0.81121,-0.29766 -0.81121,-0.93557 0,-0.87365 0.81121,-1.26127 1.61078,-1.26127 0.41328,0 0.82682,0.0622 1.20359,0.2286 z"
         inkscape:connector-curvature="0"
         style="fill:#4a89dc;stroke-width:0.26458332" />
      <path
         id="path6694"
         d="m 805.08993,853.84716 h -1.29646 v -0.39555 h -0.0143 c -0.22807,0.35348 -0.67786,0.51276 -1.10463,0.51276 -1.08373,0 -1.84547,-0.88053 -1.84547,-1.89971 0,-1.01811 0.74824,-1.89203 1.83092,-1.89203 0.42015,0 0.86254,0.1524 1.13321,0.46408 v -0.34581 h 1.29619 z m -2.92126,-1.77482 c 0,0.45032 0.30691,0.79692 0.83343,0.79692 0.52705,0 0.83265,-0.34607 0.83265,-0.79692 0,-0.43683 -0.3056,-0.80407 -0.83265,-0.80407 -0.52652,2.6e-4 -0.83343,0.36724 -0.83343,0.80407 z"
         inkscape:connector-curvature="0"
         style="fill:#4a89dc;stroke-width:0.26458332" />
      <path
         id="path6696"
         d="m 798.25389,852.28083 h -2.72971 c 0,0.51249 0.27861,0.78951 0.8128,0.78951 0.27782,0 0.47705,-0.0897 0.61992,-0.3257 h 1.24725 c -0.20664,0.839 -1.02632,1.22026 -1.85976,1.22026 -1.21047,0 -2.11534,-0.66596 -2.11534,-1.8923 0,-1.18533 0.83264,-1.89918 2.02247,-1.89918 1.26815,0 2.0029,0.76279 2.0029,1.97538 z m -1.20438,-0.7284 c -0.0643,-0.33973 -0.38497,-0.56145 -0.73369,-0.56145 -0.37809,0 -0.6903,0.19341 -0.76994,0.56145 z"
         inkscape:connector-curvature="0"
         style="fill:#4a89dc;stroke-width:0.26458332" />
      <path
         id="path6698"
         d="m 784.33628,852.01042 c -10e-4,-0.0307 -0.003,-0.0606 -0.006,-0.091 0,0 0,-2.7e-4 0,-5.3e-4 0,0 0,-2.7e-4 0,-5.3e-4 -0.0291,-0.32994 -0.13812,-0.63871 -0.32306,-0.91758 -0.0825,-0.12435 -0.17701,-0.23733 -0.28257,-0.33866 -0.15426,-0.14844 -0.33285,-0.2712 -0.5342,-0.3683 -0.30295,-0.14473 -0.63764,-0.21776 -0.99483,-0.21776 -0.0349,0 -0.0714,5.3e-4 -0.10822,0.002 -0.25082,0.0114 -0.49344,0.059 -0.72151,0.14287 -0.22993,0.0831 -0.43022,0.19288 -0.59399,0.32464 -0.0333,0.0265 -0.0696,0.059 -0.10848,0.0947 l -0.0281,0.0275 -0.0384,0.0408 h 2.6e-4 2.7e-4 l -0.018,0.0177 -0.009,0.01 -0.0458,0.0481 c -0.0339,0.0381 -0.0661,0.0762 -0.0963,0.11351 l -2.6e-4,-5.3e-4 -10e-4,-10e-4 c -0.0627,0.0762 -0.12065,0.15505 -0.16325,0.22596 -0.0288,0.0455 -0.0571,0.0923 -0.0841,0.13917 l -0.37385,0.75591 5.3e-4,5.3e-4 -0.0196,0.0384 -0.0413,0.0836 c -0.082,0.1659 -0.16986,0.33126 -0.26802,0.46779 -0.21881,0.23998 -0.4662,0.35745 -0.78423,0.35745 -0.0222,0 -0.045,-10e-4 -0.0683,-0.002 -0.19156,-0.008 -0.35586,-0.0529 -0.50165,-0.13917 -0.0156,-0.009 -0.0307,-0.0188 -0.0452,-0.0286 -0.11907,-0.0791 -0.21035,-0.18071 -0.27861,-0.30744 -0.077,-0.14367 -0.11112,-0.29052 -0.10636,-0.44609 2.6e-4,-0.004 5.3e-4,-0.008 5.3e-4,-0.0114 0.0103,-0.24765 0.10477,-0.44026 0.29501,-0.60669 0.0463,-0.0399 0.0947,-0.0738 0.14525,-0.10398 0.007,-0.004 0.0143,-0.008 0.0214,-0.0119 0.14128,-0.077 0.30215,-0.11536 0.48656,-0.11536 l 0.0574,0.002 c 0.29289,0.0111 0.51885,0.10266 0.69903,0.28126 l 0.56515,-1.01468 c -0.1352,-0.0905 -0.28787,-0.16828 -0.45614,-0.23151 -0.006,-0.002 -0.013,-0.005 -0.0196,-0.007 -0.0201,-0.007 -0.04,-0.0146 -0.0606,-0.0212 -0.17886,-0.0598 -0.36645,-0.0966 -0.5596,-0.11324 v 0 c -0.005,-8e-4 -0.01,-10e-4 -0.0148,-0.002 -0.0296,-0.002 -0.0598,-0.006 -0.0894,-0.007 -0.0323,-10e-4 -0.0648,-0.002 -0.0966,-0.002 h -0.0183 c -0.35534,10e-4 -0.68554,0.0741 -0.98743,0.21828 -0.33813,0.16298 -0.61224,0.40032 -0.81544,0.70617 -0.20267,0.30586 -0.31327,0.64532 -0.32914,1.00965 -10e-4,0.0312 -0.002,0.0622 -0.002,0.0926 -2.6e-4,0.50959 0.18547,0.95779 0.55483,1.33403 0.3855,0.39476 0.88688,0.60748 1.48881,0.63262 0.0386,0.002 0.0767,0.003 0.11483,0.003 0.34052,0 0.65564,-0.0606 0.93821,-0.18177 0.0707,-0.0302 0.13917,-0.0656 0.20929,-0.10504 0.0381,-0.022 0.0741,-0.0452 0.1098,-0.0701 l 0.0265,-0.0177 0.0444,-0.0304 c 0.0534,-0.0384 0.10345,-0.0799 0.15213,-0.12409 l 0.0169,-0.0161 c 0.0286,-0.0273 0.0572,-0.0548 0.0841,-0.0831 l 0.10133,-0.11457 0.0386,-0.0484 0.018,-0.0265 0.018,-0.0259 c 0.15055,-0.25295 0.64056,-1.17343 0.64056,-1.17343 v -0.002 l 0.0291,-0.0561 0.0244,-0.0439 c 0.0722,-0.13149 0.12435,-0.22489 0.19341,-0.32305 l 0.002,-0.003 c 0.16113,-0.23363 0.43815,-0.40005 0.76464,-0.4281 0.54769,-0.0471 1.02765,0.31274 1.07183,0.80381 0.0439,0.49106 -0.3646,0.92736 -0.91228,0.97472 -0.11404,0.01 -0.2249,0.002 -0.32941,-0.0209 l -0.003,10e-4 c -0.40191,-0.0836 -0.65776,-0.37677 -0.78397,-0.50774 l -0.52705,0.96917 c 0,0 0.16378,0.1651 0.27597,0.24765 0.11244,0.0823 0.2577,0.16325 0.37359,0.21352 0.28125,0.12012 0.58711,0.19209 0.92498,0.19209 0.0392,0 0.0312,0 0.072,-0.002 0.60139,-0.0251 1.13744,-0.25559 1.524,-0.65035 0.36618,-0.37491 0.56488,-0.80301 0.56673,-1.30968 v -0.0151 c -2.6e-4,-0.028 -10e-4,-0.0564 -0.002,-0.0849 z"
         inkscape:connector-curvature="0"
         style="fill:#4a89dc;stroke-width:0.26458332" />
      <path
         style="fill:#4a89dc;stroke-width:0.26458332"
         inkscape:connector-curvature="0"
         d="m 786.3524,853.96728 c -0.27331,0 -0.52123,-0.0317 -0.74374,-0.0952 -0.22252,-0.0635 -0.41249,-0.16378 -0.56991,-0.30136 -0.15796,-0.13758 -0.27967,-0.31274 -0.36539,-0.5252 -0.0857,-0.21246 -0.12859,-0.46857 -0.12859,-0.76702 v -1.98835 h 1.25068 v 1.97247 c 0,0.22357 0.0534,0.3855 0.16008,0.48657 0.10689,0.10133 0.24262,0.15187 0.40719,0.15187 0.16828,0 0.3048,-0.0471 0.41011,-0.14155 0.10477,-0.0945 0.15769,-0.25109 0.15769,-0.47122 v -1.99814 h 1.25068 v 1.96215 c 0,0.30904 -0.0439,0.57177 -0.1315,0.78793 -0.0876,0.21643 -0.21113,0.39317 -0.37015,0.53076 -0.15981,0.13758 -0.35216,0.23759 -0.57838,0.30136 -0.22622,0.0632 -0.47572,0.095 -0.74877,0.095 z"
         id="path6704" />
    </g>
  </g>
</svg>
