<svg xmlns="http://www.w3.org/2000/svg" xmlns:xlink="http://www.w3.org/1999/xlink" width="303" zoomAndPan="magnify" viewBox="0 0 227.25 242.999999" height="324" preserveAspectRatio="xMidYMid meet" version="1.0"><defs><g/><clipPath id="id1"><path d="M 0 0.398438 L 226.503906 0.398438 L 226.503906 242.597656 L 0 242.597656 Z M 0 0.398438 " clip-rule="nonzero"/></clipPath></defs><g clip-path="url(#id1)"><path fill="#ffffff" d="M 0 0.398438 L 227.25 0.398438 L 227.25 250.074219 L 0 250.074219 Z M 0 0.398438 " fill-opacity="1" fill-rule="nonzero"/><path fill="#ffffff" d="M 0 0.398438 L 226.503906 0.398438 L 226.503906 242.601562 L 0 242.601562 Z M 0 0.398438 " fill-opacity="1" fill-rule="nonzero"/><path fill="#ffffff" d="M 0 0.398438 L 226.503906 0.398438 L 226.503906 242.601562 L 0 242.601562 Z M 0 0.398438 " fill-opacity="1" fill-rule="nonzero"/></g><path fill="#d8e0e6" d="M 113.246094 147.160156 C 114.019531 147.160156 114.789062 147.121094 115.558594 147.046875 C 116.328125 146.972656 117.09375 146.859375 117.851562 146.707031 C 118.609375 146.554688 119.355469 146.367188 120.097656 146.144531 C 120.835938 145.917969 121.5625 145.660156 122.277344 145.363281 C 122.988281 145.070312 123.6875 144.738281 124.371094 144.375 C 125.050781 144.011719 125.710938 143.613281 126.355469 143.183594 C 126.996094 142.753906 127.617188 142.292969 128.214844 141.804688 C 128.8125 141.3125 129.382812 140.796875 129.929688 140.25 C 130.476562 139.703125 130.996094 139.132812 131.484375 138.535156 C 131.976562 137.9375 132.433594 137.316406 132.863281 136.675781 C 133.292969 136.03125 133.691406 135.371094 134.054688 134.6875 C 134.417969 134.007812 134.75 133.308594 135.046875 132.59375 C 135.339844 131.882812 135.601562 131.15625 135.824219 130.414062 C 136.050781 129.675781 136.238281 128.925781 136.386719 128.167969 C 136.539062 127.410156 136.652344 126.648438 136.726562 125.878906 C 136.804688 125.109375 136.839844 124.339844 136.839844 123.566406 L 89.652344 123.566406 C 89.652344 124.339844 89.691406 125.109375 89.765625 125.878906 C 89.84375 126.648438 89.957031 127.410156 90.105469 128.167969 C 90.257812 128.925781 90.445312 129.675781 90.667969 130.414062 C 90.894531 131.15625 91.152344 131.882812 91.449219 132.59375 C 91.746094 133.308594 92.074219 134.007812 92.4375 134.6875 C 92.804688 135.371094 93.199219 136.03125 93.628906 136.675781 C 94.058594 137.316406 94.519531 137.9375 95.007812 138.535156 C 95.5 139.132812 96.015625 139.703125 96.5625 140.25 C 97.109375 140.796875 97.683594 141.3125 98.277344 141.804688 C 98.875 142.292969 99.496094 142.753906 100.140625 143.183594 C 100.78125 143.613281 101.445312 144.011719 102.125 144.375 C 102.804688 144.738281 103.503906 145.070312 104.21875 145.363281 C 104.933594 145.660156 105.660156 145.917969 106.398438 146.144531 C 107.136719 146.367188 107.886719 146.554688 108.644531 146.707031 C 109.402344 146.859375 110.164062 146.972656 110.933594 147.046875 C 111.703125 147.121094 112.472656 147.160156 113.246094 147.160156 Z M 113.246094 147.160156 " fill-opacity="1" fill-rule="nonzero"/><path fill="#e6b374" d="M 104.527344 108.230469 C 104.527344 108.699219 104.4375 109.152344 104.253906 109.585938 C 104.074219 110.019531 103.816406 110.402344 103.480469 110.734375 C 103.144531 111.0625 102.757812 111.320312 102.320312 111.5 C 101.878906 111.679688 101.421875 111.769531 100.949219 111.769531 C 100.472656 111.769531 100.015625 111.679688 99.578125 111.5 C 99.140625 111.320312 98.753906 111.0625 98.417969 110.734375 C 98.082031 110.402344 97.824219 110.019531 97.640625 109.585938 C 97.460938 109.152344 97.371094 108.699219 97.371094 108.230469 C 97.371094 107.761719 97.460938 107.308594 97.640625 106.875 C 97.824219 106.441406 98.082031 106.058594 98.417969 105.726562 C 98.753906 105.394531 99.140625 105.140625 99.578125 104.960938 C 100.015625 104.78125 100.472656 104.691406 100.949219 104.691406 C 101.421875 104.691406 101.878906 104.78125 102.320312 104.960938 C 102.757812 105.140625 103.144531 105.394531 103.480469 105.726562 C 103.816406 106.058594 104.074219 106.441406 104.253906 106.875 C 104.4375 107.308594 104.527344 107.761719 104.527344 108.230469 Z M 104.527344 108.230469 " fill-opacity="1" fill-rule="nonzero"/><path fill="#5993de" d="M 107.347656 123.566406 L 107.347656 114.128906 C 107.347656 113.816406 107.289062 113.515625 107.167969 113.226562 C 107.050781 112.9375 106.878906 112.679688 106.65625 112.460938 C 106.4375 112.238281 106.179688 112.070312 105.890625 111.949219 C 105.601562 111.828125 105.300781 111.769531 104.988281 111.769531 L 97.910156 111.769531 C 97.597656 111.769531 97.296875 111.828125 97.007812 111.949219 C 96.71875 112.070312 96.464844 112.238281 96.242188 112.460938 C 96.019531 112.679688 95.851562 112.9375 95.730469 113.226562 C 95.613281 113.515625 95.550781 113.816406 95.550781 114.128906 L 95.550781 123.566406 Z M 107.347656 123.566406 " fill-opacity="1" fill-rule="nonzero"/><path fill="#e6b374" d="M 128.582031 108.230469 C 128.582031 108.699219 128.492188 109.152344 128.3125 109.585938 C 128.132812 110.019531 127.878906 110.402344 127.546875 110.734375 C 127.214844 111.0625 126.832031 111.320312 126.398438 111.5 C 125.964844 111.679688 125.511719 111.769531 125.042969 111.769531 C 124.574219 111.769531 124.125 111.679688 123.691406 111.5 C 123.257812 111.320312 122.875 111.0625 122.542969 110.734375 C 122.210938 110.402344 121.953125 110.019531 121.773438 109.585938 C 121.59375 109.152344 121.503906 108.699219 121.503906 108.230469 C 121.503906 107.761719 121.59375 107.308594 121.773438 106.875 C 121.953125 106.441406 122.210938 106.058594 122.542969 105.726562 C 122.875 105.394531 123.257812 105.140625 123.691406 104.960938 C 124.125 104.78125 124.574219 104.691406 125.042969 104.691406 C 125.511719 104.691406 125.964844 104.78125 126.398438 104.960938 C 126.832031 105.140625 127.214844 105.394531 127.546875 105.726562 C 127.878906 106.058594 128.132812 106.441406 128.3125 106.875 C 128.492188 107.308594 128.582031 107.761719 128.582031 108.230469 Z M 128.582031 108.230469 " fill-opacity="1" fill-rule="nonzero"/><path fill="#5993de" d="M 130.941406 123.566406 L 130.941406 114.128906 C 130.941406 113.816406 130.882812 113.515625 130.761719 113.226562 C 130.644531 112.9375 130.472656 112.679688 130.25 112.460938 C 130.03125 112.238281 129.773438 112.070312 129.484375 111.949219 C 129.195312 111.828125 128.894531 111.769531 128.582031 111.769531 L 121.503906 111.769531 C 121.191406 111.769531 120.890625 111.828125 120.601562 111.949219 C 120.3125 112.070312 120.058594 112.238281 119.835938 112.460938 C 119.617188 112.679688 119.445312 112.9375 119.324219 113.226562 C 119.207031 113.515625 119.144531 113.816406 119.144531 114.128906 L 119.144531 123.566406 Z M 130.941406 123.566406 " fill-opacity="1" fill-rule="nonzero"/><path fill="#ffc780" d="M 116.785156 108.230469 C 116.785156 108.699219 116.695312 109.152344 116.515625 109.585938 C 116.335938 110.019531 116.082031 110.402344 115.75 110.734375 C 115.417969 111.0625 115.035156 111.320312 114.601562 111.5 C 114.167969 111.679688 113.714844 111.769531 113.246094 111.769531 C 112.777344 111.769531 112.328125 111.679688 111.894531 111.5 C 111.460938 111.320312 111.078125 111.0625 110.746094 110.734375 C 110.414062 110.402344 110.15625 110.019531 109.976562 109.585938 C 109.796875 109.152344 109.707031 108.699219 109.707031 108.230469 C 109.707031 107.761719 109.796875 107.308594 109.976562 106.875 C 110.15625 106.441406 110.414062 106.058594 110.746094 105.726562 C 111.078125 105.394531 111.460938 105.140625 111.894531 104.960938 C 112.328125 104.78125 112.777344 104.691406 113.246094 104.691406 C 113.714844 104.691406 114.167969 104.78125 114.601562 104.960938 C 115.035156 105.140625 115.417969 105.394531 115.75 105.726562 C 116.082031 106.058594 116.335938 106.441406 116.515625 106.875 C 116.695312 107.308594 116.785156 107.761719 116.785156 108.230469 Z M 116.785156 108.230469 " fill-opacity="1" fill-rule="nonzero"/><path fill="#6f9fde" d="M 119.144531 123.566406 L 119.144531 114.128906 C 119.144531 113.816406 119.085938 113.515625 118.964844 113.226562 C 118.847656 112.9375 118.675781 112.679688 118.453125 112.460938 C 118.234375 112.238281 117.976562 112.070312 117.6875 111.949219 C 117.398438 111.828125 117.097656 111.769531 116.785156 111.769531 L 109.707031 111.769531 C 109.394531 111.769531 109.09375 111.828125 108.804688 111.949219 C 108.515625 112.070312 108.261719 112.238281 108.039062 112.460938 C 107.820312 112.679688 107.648438 112.9375 107.527344 113.226562 C 107.410156 113.515625 107.347656 113.816406 107.347656 114.128906 L 107.347656 123.566406 Z M 119.144531 123.566406 " fill-opacity="1" fill-rule="nonzero"/><path fill="#7083a6" d="M 121.269531 88.175781 C 121.269531 87.828125 121.242188 87.480469 121.195312 87.136719 C 121.171875 86.957031 121.203125 86.785156 121.289062 86.625 C 121.375 86.460938 121.5 86.339844 121.660156 86.253906 L 122.210938 85.953125 C 122.316406 85.894531 122.410156 85.820312 122.488281 85.726562 C 122.5625 85.632812 122.617188 85.527344 122.648438 85.410156 C 122.683594 85.292969 122.691406 85.171875 122.675781 85.050781 C 122.660156 84.929688 122.621094 84.820312 122.558594 84.714844 L 121.03125 82.199219 C 120.894531 81.980469 120.699219 81.835938 120.449219 81.773438 C 120.199219 81.710938 119.960938 81.738281 119.734375 81.867188 L 119.179688 82.171875 C 118.800781 82.375 118.441406 82.34375 118.101562 82.085938 C 117.550781 81.679688 116.964844 81.351562 116.332031 81.097656 C 116.152344 81.03125 116.003906 80.921875 115.894531 80.769531 C 115.78125 80.613281 115.722656 80.441406 115.714844 80.25 L 115.714844 79.644531 C 115.710938 79.386719 115.613281 79.171875 115.429688 78.996094 C 115.246094 78.820312 115.027344 78.734375 114.769531 78.738281 L 111.726562 78.738281 C 111.472656 78.734375 111.25 78.820312 111.066406 78.996094 C 110.882812 79.171875 110.789062 79.386719 110.78125 79.644531 L 110.78125 80.25 C 110.777344 80.441406 110.714844 80.617188 110.601562 80.769531 C 110.488281 80.925781 110.34375 81.035156 110.160156 81.097656 C 109.53125 81.351562 108.941406 81.679688 108.390625 82.082031 C 108.050781 82.339844 107.691406 82.371094 107.3125 82.171875 L 106.757812 81.863281 C 106.53125 81.738281 106.292969 81.707031 106.042969 81.769531 C 105.789062 81.835938 105.597656 81.976562 105.457031 82.195312 L 103.9375 84.714844 C 103.875 84.820312 103.835938 84.929688 103.820312 85.050781 C 103.800781 85.171875 103.808594 85.289062 103.84375 85.40625 C 103.875 85.523438 103.929688 85.628906 104.007812 85.726562 C 104.082031 85.820312 104.175781 85.894531 104.28125 85.953125 L 104.832031 86.253906 C 104.996094 86.339844 105.117188 86.460938 105.207031 86.621094 C 105.292969 86.785156 105.324219 86.957031 105.304688 87.136719 C 105.203125 87.828125 105.203125 88.519531 105.304688 89.210938 C 105.324219 89.394531 105.292969 89.566406 105.207031 89.726562 C 105.117188 89.890625 104.996094 90.011719 104.832031 90.09375 L 104.28125 90.398438 C 104.171875 90.453125 104.082031 90.53125 104.003906 90.625 C 103.929688 90.71875 103.875 90.824219 103.839844 90.941406 C 103.808594 91.058594 103.800781 91.175781 103.816406 91.296875 C 103.832031 91.417969 103.871094 91.53125 103.933594 91.636719 L 105.460938 94.152344 C 105.597656 94.371094 105.792969 94.511719 106.042969 94.578125 C 106.292969 94.640625 106.53125 94.609375 106.757812 94.484375 L 107.3125 94.175781 C 107.691406 93.976562 108.054688 94.007812 108.394531 94.265625 C 108.941406 94.667969 109.53125 94.996094 110.164062 95.25 C 110.34375 95.316406 110.492188 95.425781 110.605469 95.578125 C 110.714844 95.734375 110.777344 95.90625 110.78125 96.097656 L 110.78125 96.707031 C 110.789062 96.960938 110.882812 97.175781 111.066406 97.355469 C 111.25 97.53125 111.46875 97.617188 111.726562 97.613281 L 114.765625 97.613281 C 115.023438 97.617188 115.242188 97.53125 115.425781 97.355469 C 115.609375 97.175781 115.703125 96.960938 115.710938 96.707031 L 115.710938 96.097656 C 115.71875 95.90625 115.777344 95.734375 115.890625 95.578125 C 116.003906 95.425781 116.152344 95.316406 116.332031 95.253906 C 116.964844 95 117.554688 94.671875 118.101562 94.269531 C 118.445312 94.007812 118.804688 93.980469 119.183594 94.179688 L 119.738281 94.488281 C 119.964844 94.613281 120.203125 94.644531 120.453125 94.578125 C 120.703125 94.515625 120.898438 94.375 121.035156 94.15625 L 122.554688 91.636719 C 122.617188 91.53125 122.65625 91.421875 122.671875 91.300781 C 122.6875 91.179688 122.679688 91.0625 122.648438 90.945312 C 122.613281 90.828125 122.558594 90.722656 122.484375 90.625 C 122.40625 90.53125 122.316406 90.457031 122.207031 90.398438 L 121.660156 90.097656 C 121.496094 90.011719 121.371094 89.890625 121.289062 89.726562 C 121.203125 89.566406 121.171875 89.394531 121.191406 89.214844 C 121.242188 88.871094 121.269531 88.523438 121.269531 88.175781 Z M 121.269531 88.175781 " fill-opacity="1" fill-rule="nonzero"/><path fill="#e6eef3" d="M 116.785156 88.175781 C 116.785156 88.644531 116.695312 89.097656 116.515625 89.53125 C 116.335938 89.964844 116.082031 90.347656 115.75 90.675781 C 115.417969 91.007812 115.035156 91.265625 114.601562 91.445312 C 114.167969 91.625 113.714844 91.714844 113.246094 91.714844 C 112.777344 91.714844 112.328125 91.625 111.894531 91.445312 C 111.460938 91.265625 111.078125 91.007812 110.746094 90.675781 C 110.414062 90.347656 110.15625 89.964844 109.976562 89.53125 C 109.796875 89.097656 109.707031 88.644531 109.707031 88.175781 C 109.707031 87.707031 109.796875 87.253906 109.976562 86.820312 C 110.15625 86.386719 110.414062 86.003906 110.746094 85.671875 C 111.078125 85.339844 111.460938 85.085938 111.894531 84.90625 C 112.328125 84.726562 112.777344 84.636719 113.246094 84.636719 C 113.714844 84.636719 114.167969 84.726562 114.601562 84.90625 C 115.035156 85.085938 115.417969 85.339844 115.75 85.671875 C 116.082031 86.003906 116.335938 86.386719 116.515625 86.820312 C 116.695312 87.253906 116.785156 87.707031 116.785156 88.175781 Z M 116.785156 88.175781 " fill-opacity="1" fill-rule="nonzero"/><path fill="#90aacc" d="M 138.632812 120.765625 L 136.792969 119.289062 C 145.195312 108.839844 147.441406 97.882812 142.519531 91.367188 C 139.355469 87.183594 133.550781 85.210938 126.179688 85.816406 L 125.988281 83.457031 C 134.199219 82.78125 140.734375 85.085938 144.402344 89.945312 C 150 97.351562 147.734375 109.449219 138.632812 120.765625 Z M 138.632812 120.765625 " fill-opacity="1" fill-rule="nonzero"/><path fill="#90aacc" d="M 91.742188 141.957031 C 89.832031 141.574219 88.046875 140.871094 86.386719 139.851562 C 84.726562 138.832031 83.296875 137.554688 82.09375 136.019531 C 80.765625 134.152344 79.859375 132.101562 79.371094 129.863281 C 78.882812 127.628906 78.847656 125.382812 79.273438 123.132812 C 80.6875 113.316406 88.148438 102.566406 99.214844 94.390625 C 99.730469 94.007812 100.253906 93.636719 100.777344 93.273438 L 102.125 95.210938 C 101.617188 95.5625 101.117188 95.921875 100.617188 96.289062 C 90.203125 103.984375 82.921875 114.402344 81.605469 123.46875 C 81.230469 125.410156 81.25 127.34375 81.660156 129.273438 C 82.074219 131.207031 82.84375 132.980469 83.976562 134.597656 C 85.015625 135.910156 86.25 137 87.675781 137.871094 C 89.105469 138.742188 90.640625 139.339844 92.28125 139.660156 Z M 91.742188 141.957031 " fill-opacity="1" fill-rule="nonzero"/><path fill="#4b9d93" d="M 90.863281 124.746094 C 91.050781 128.296875 92.03125 131.613281 93.804688 134.691406 C 96.046875 133.824219 98.347656 133.171875 100.710938 132.738281 C 100.15625 130.101562 99.851562 127.4375 99.792969 124.746094 Z M 90.863281 124.746094 " fill-opacity="1" fill-rule="nonzero"/><path fill="#4b9d93" d="M 113.246094 140.851562 C 113.28125 140.851562 113.3125 140.851562 113.347656 140.851562 C 114.570312 140.851562 115.792969 140.890625 116.996094 140.964844 L 117.195312 140.976562 C 118.15625 141.039062 119.09375 141.128906 120.015625 141.238281 C 121.285156 139.179688 122.246094 136.988281 122.890625 134.65625 C 116.460938 133.746094 110.03125 133.746094 103.601562 134.65625 C 104.246094 136.988281 105.207031 139.179688 106.480469 141.238281 C 108.726562 140.980469 110.984375 140.851562 113.246094 140.851562 Z M 113.246094 140.851562 " fill-opacity="1" fill-rule="nonzero"/><path fill="#4b9d93" d="M 100.914062 142.265625 C 101.867188 142.015625 102.878906 141.796875 103.949219 141.609375 C 102.785156 139.527344 101.886719 137.335938 101.261719 135.035156 C 99.164062 135.421875 97.113281 135.980469 95.113281 136.71875 C 96.710938 138.914062 98.644531 140.765625 100.914062 142.265625 Z M 100.914062 142.265625 " fill-opacity="1" fill-rule="nonzero"/><path fill="#4b9d93" d="M 123.453125 132.355469 C 123.988281 129.847656 124.285156 127.308594 124.34375 124.746094 L 102.152344 124.746094 C 102.207031 127.308594 102.503906 129.847656 103.039062 132.355469 C 109.84375 131.367188 116.644531 131.367188 123.449219 132.355469 Z M 123.453125 132.355469 " fill-opacity="1" fill-rule="nonzero"/><path fill="#a8aeb3" d="M 122.429688 143.984375 C 121.785156 143.867188 121.125 143.757812 120.441406 143.660156 L 120.429688 143.660156 C 119.34375 143.519531 118.21875 143.414062 117.074219 143.339844 L 116.800781 143.320312 C 115.699219 143.253906 114.5625 143.222656 113.421875 143.21875 C 110.953125 143.203125 108.496094 143.351562 106.046875 143.664062 C 105.363281 143.757812 104.707031 143.867188 104.0625 143.988281 C 105.503906 144.644531 107 145.140625 108.546875 145.476562 C 110.097656 145.8125 111.664062 145.980469 113.246094 145.980469 C 114.832031 145.980469 116.398438 145.8125 117.945312 145.476562 C 119.496094 145.140625 120.988281 144.644531 122.429688 143.988281 Z M 122.429688 143.984375 " fill-opacity="1" fill-rule="nonzero"/><path fill="#4b9d93" d="M 135.628906 124.746094 L 126.703125 124.746094 C 126.644531 127.4375 126.335938 130.101562 125.785156 132.738281 C 128.148438 133.171875 130.449219 133.824219 132.6875 134.691406 C 134.464844 131.613281 135.445312 128.296875 135.628906 124.746094 Z M 135.628906 124.746094 " fill-opacity="1" fill-rule="nonzero"/><path fill="#4b9d93" d="M 125.234375 135.035156 C 124.605469 137.335938 123.710938 139.527344 122.546875 141.609375 C 123.617188 141.796875 124.625 142.015625 125.582031 142.265625 C 127.847656 140.765625 129.78125 138.917969 131.382812 136.71875 C 129.382812 135.980469 127.332031 135.421875 125.234375 135.035156 Z M 125.234375 135.035156 " fill-opacity="1" fill-rule="nonzero"/><g fill="#004aad" fill-opacity="1"><g transform="translate(79.236548, 164.918092)"><g><path d="M 10.09375 -5.15625 C 10.09375 -3.519531 9.6875 -2.226562 8.875 -1.28125 C 8.0625 -0.332031 6.9375 0.140625 5.5 0.140625 C 4.070312 0.140625 2.945312 -0.332031 2.125 -1.28125 C 1.3125 -2.226562 0.90625 -3.523438 0.90625 -5.171875 C 0.90625 -6.804688 1.316406 -8.09375 2.140625 -9.03125 C 2.960938 -9.976562 4.085938 -10.453125 5.515625 -10.453125 C 6.953125 -10.453125 8.070312 -9.976562 8.875 -9.03125 C 9.6875 -8.082031 10.09375 -6.789062 10.09375 -5.15625 Z M 1.6875 -5.15625 C 1.6875 -3.6875 2.015625 -2.546875 2.671875 -1.734375 C 3.328125 -0.929688 4.269531 -0.53125 5.5 -0.53125 C 6.738281 -0.53125 7.6875 -0.925781 8.34375 -1.71875 C 9 -2.519531 9.328125 -3.664062 9.328125 -5.15625 C 9.328125 -6.632812 9 -7.769531 8.34375 -8.5625 C 7.6875 -9.351562 6.742188 -9.75 5.515625 -9.75 C 4.285156 -9.75 3.335938 -9.347656 2.671875 -8.546875 C 2.015625 -7.753906 1.6875 -6.625 1.6875 -5.15625 Z M 1.6875 -5.15625 "/></g></g></g><g fill="#004aad" fill-opacity="1"><g transform="translate(90.241111, 164.918092)"><g><path d="M 0.640625 -3.609375 L 0.640625 -4.171875 L 3.984375 -4.171875 L 3.984375 -3.609375 Z M 0.640625 -3.609375 "/></g></g></g><g fill="#004aad" fill-opacity="1"><g transform="translate(94.874985, 164.918092)"><g><path d="M 2.953125 0 L 0 -7.640625 L 0.71875 -7.640625 L 2.6875 -2.453125 C 2.957031 -1.785156 3.15625 -1.203125 3.28125 -0.703125 L 3.328125 -0.703125 C 3.515625 -1.335938 3.710938 -1.925781 3.921875 -2.46875 L 5.890625 -7.640625 L 6.609375 -7.640625 L 3.65625 0 Z M 2.953125 0 "/></g></g></g><g fill="#004aad" fill-opacity="1"><g transform="translate(101.484751, 164.918092)"><g><path d="M 5.921875 0 L 5.75 -1.203125 L 5.6875 -1.203125 C 5.300781 -0.710938 4.90625 -0.363281 4.5 -0.15625 C 4.09375 0.0390625 3.613281 0.140625 3.0625 0.140625 C 2.3125 0.140625 1.726562 -0.0507812 1.3125 -0.4375 C 0.894531 -0.820312 0.6875 -1.351562 0.6875 -2.03125 C 0.6875 -2.78125 0.992188 -3.359375 1.609375 -3.765625 C 2.234375 -4.179688 3.132812 -4.398438 4.3125 -4.421875 L 5.78125 -4.46875 L 5.78125 -4.96875 C 5.78125 -5.695312 5.628906 -6.242188 5.328125 -6.609375 C 5.035156 -6.984375 4.5625 -7.171875 3.90625 -7.171875 C 3.195312 -7.171875 2.460938 -6.972656 1.703125 -6.578125 L 1.4375 -7.1875 C 2.28125 -7.582031 3.113281 -7.78125 3.9375 -7.78125 C 4.769531 -7.78125 5.394531 -7.5625 5.8125 -7.125 C 6.226562 -6.6875 6.4375 -6.003906 6.4375 -5.078125 L 6.4375 0 Z M 3.109375 -0.5 C 3.921875 -0.5 4.5625 -0.726562 5.03125 -1.1875 C 5.507812 -1.65625 5.75 -2.304688 5.75 -3.140625 L 5.75 -3.890625 L 4.40625 -3.828125 C 3.332031 -3.773438 2.566406 -3.609375 2.109375 -3.328125 C 1.648438 -3.046875 1.421875 -2.601562 1.421875 -2 C 1.421875 -1.519531 1.566406 -1.148438 1.859375 -0.890625 C 2.160156 -0.628906 2.578125 -0.5 3.109375 -0.5 Z M 3.109375 -0.5 "/></g></g></g><g fill="#004aad" fill-opacity="1"><g transform="translate(109.114114, 164.918092)"><g><path d="M 5.84375 -9.78125 C 4.550781 -9.78125 3.535156 -9.367188 2.796875 -8.546875 C 2.054688 -7.722656 1.6875 -6.59375 1.6875 -5.15625 C 1.6875 -3.6875 2.035156 -2.546875 2.734375 -1.734375 C 3.429688 -0.921875 4.429688 -0.515625 5.734375 -0.515625 C 6.597656 -0.515625 7.390625 -0.625 8.109375 -0.84375 L 8.109375 -0.21875 C 7.429688 0.0195312 6.582031 0.140625 5.5625 0.140625 C 4.113281 0.140625 2.972656 -0.320312 2.140625 -1.25 C 1.316406 -2.1875 0.90625 -3.492188 0.90625 -5.171875 C 0.90625 -6.210938 1.101562 -7.128906 1.5 -7.921875 C 1.894531 -8.722656 2.460938 -9.34375 3.203125 -9.78125 C 3.953125 -10.21875 4.816406 -10.4375 5.796875 -10.4375 C 6.804688 -10.4375 7.707031 -10.25 8.5 -9.875 L 8.203125 -9.21875 C 7.453125 -9.59375 6.664062 -9.78125 5.84375 -9.78125 Z M 5.84375 -9.78125 "/></g></g></g><g fill="#004aad" fill-opacity="1"><g transform="translate(118.058394, 164.918092)"><g><path d="M 7.609375 -3.828125 C 7.609375 -2.585938 7.304688 -1.613281 6.703125 -0.90625 C 6.097656 -0.207031 5.257812 0.140625 4.1875 0.140625 C 3.519531 0.140625 2.929688 -0.0195312 2.421875 -0.34375 C 1.910156 -0.664062 1.519531 -1.128906 1.25 -1.734375 C 0.976562 -2.335938 0.84375 -3.035156 0.84375 -3.828125 C 0.84375 -5.078125 1.144531 -6.050781 1.75 -6.75 C 2.351562 -7.445312 3.179688 -7.796875 4.234375 -7.796875 C 5.285156 -7.796875 6.109375 -7.441406 6.703125 -6.734375 C 7.304688 -6.023438 7.609375 -5.054688 7.609375 -3.828125 Z M 1.5625 -3.828125 C 1.5625 -2.785156 1.789062 -1.96875 2.25 -1.375 C 2.71875 -0.789062 3.375 -0.5 4.21875 -0.5 C 5.0625 -0.5 5.710938 -0.789062 6.171875 -1.375 C 6.640625 -1.96875 6.875 -2.785156 6.875 -3.828125 C 6.875 -4.890625 6.640625 -5.707031 6.171875 -6.28125 C 5.703125 -6.863281 5.046875 -7.15625 4.203125 -7.15625 C 3.359375 -7.15625 2.707031 -6.863281 2.25 -6.28125 C 1.789062 -5.707031 1.5625 -4.890625 1.5625 -3.828125 Z M 1.5625 -3.828125 "/></g></g></g><g fill="#004aad" fill-opacity="1"><g transform="translate(126.496393, 164.918092)"><g><path d="M 4.296875 -7.796875 C 4.617188 -7.796875 4.960938 -7.765625 5.328125 -7.703125 L 5.203125 -7.03125 C 4.878906 -7.101562 4.546875 -7.140625 4.203125 -7.140625 C 3.554688 -7.140625 3.023438 -6.863281 2.609375 -6.3125 C 2.191406 -5.757812 1.984375 -5.0625 1.984375 -4.21875 L 1.984375 0 L 1.28125 0 L 1.28125 -7.640625 L 1.875 -7.640625 L 1.9375 -6.265625 L 1.984375 -6.265625 C 2.304688 -6.828125 2.644531 -7.222656 3 -7.453125 C 3.351562 -7.679688 3.785156 -7.796875 4.296875 -7.796875 Z M 4.296875 -7.796875 "/></g></g></g><g fill="#004aad" fill-opacity="1"><g transform="translate(132.100636, 164.918092)"><g><path d="M 4.546875 0.140625 C 3.367188 0.140625 2.515625 -0.300781 1.984375 -1.1875 L 1.921875 -1.1875 L 1.953125 -0.59375 C 1.972656 -0.25 1.984375 0.128906 1.984375 0.546875 L 1.984375 3.453125 L 1.28125 3.453125 L 1.28125 -7.640625 L 1.875 -7.640625 L 2 -6.5625 L 2.046875 -6.5625 C 2.566406 -7.382812 3.40625 -7.796875 4.5625 -7.796875 C 5.59375 -7.796875 6.378906 -7.457031 6.921875 -6.78125 C 7.460938 -6.101562 7.734375 -5.113281 7.734375 -3.8125 C 7.734375 -2.5625 7.445312 -1.585938 6.875 -0.890625 C 6.3125 -0.203125 5.535156 0.140625 4.546875 0.140625 Z M 4.53125 -0.484375 C 5.320312 -0.484375 5.929688 -0.769531 6.359375 -1.34375 C 6.785156 -1.925781 7 -2.742188 7 -3.796875 C 7 -6.035156 6.1875 -7.15625 4.5625 -7.15625 C 3.675781 -7.15625 3.023438 -6.910156 2.609375 -6.421875 C 2.191406 -5.929688 1.984375 -5.132812 1.984375 -4.03125 L 1.984375 -3.8125 C 1.984375 -2.613281 2.179688 -1.757812 2.578125 -1.25 C 2.972656 -0.738281 3.625 -0.484375 4.53125 -0.484375 Z M 4.53125 -0.484375 "/></g></g></g><g fill="#004aad" fill-opacity="1"><g transform="translate(140.672243, 164.918092)"><g><path d="M 6.015625 -1.984375 C 6.015625 -1.304688 5.753906 -0.78125 5.234375 -0.40625 C 4.710938 -0.0390625 3.976562 0.140625 3.03125 0.140625 C 2 0.140625 1.1875 -0.015625 0.59375 -0.328125 L 0.59375 -1.078125 C 1.363281 -0.691406 2.175781 -0.5 3.03125 -0.5 C 3.78125 -0.5 4.347656 -0.625 4.734375 -0.875 C 5.128906 -1.132812 5.328125 -1.472656 5.328125 -1.890625 C 5.328125 -2.273438 5.171875 -2.597656 4.859375 -2.859375 C 4.546875 -3.117188 4.035156 -3.375 3.328125 -3.625 C 2.566406 -3.90625 2.03125 -4.144531 1.71875 -4.34375 C 1.40625 -4.539062 1.171875 -4.765625 1.015625 -5.015625 C 0.859375 -5.265625 0.78125 -5.570312 0.78125 -5.9375 C 0.78125 -6.507812 1.019531 -6.960938 1.5 -7.296875 C 1.976562 -7.628906 2.648438 -7.796875 3.515625 -7.796875 C 4.335938 -7.796875 5.117188 -7.640625 5.859375 -7.328125 L 5.609375 -6.703125 C 4.859375 -7.003906 4.160156 -7.15625 3.515625 -7.15625 C 2.890625 -7.15625 2.394531 -7.050781 2.03125 -6.84375 C 1.664062 -6.644531 1.484375 -6.363281 1.484375 -6 C 1.484375 -5.59375 1.625 -5.269531 1.90625 -5.03125 C 2.1875 -4.789062 2.742188 -4.523438 3.578125 -4.234375 C 4.265625 -3.984375 4.765625 -3.757812 5.078125 -3.5625 C 5.390625 -3.363281 5.625 -3.132812 5.78125 -2.875 C 5.9375 -2.625 6.015625 -2.328125 6.015625 -1.984375 Z M 6.015625 -1.984375 "/></g></g></g></svg>